<svg xmlns="http://www.w3.org/2000/svg" xmlns:xlink="http://www.w3.org/1999/xlink" viewBox="0 0 160.16 156.72">
  <defs>
    <style>
      .a, .d {
        fill: none;
      }

      .b {
        clip-path: url(#a);
      }

      .c {
        fill: #e6e6e6;
        stroke-width: 0.29px;
        stroke: url(#b);
      }

      .ab, .ac, .ad, .ae, .ag, .ah, .ai, .aj, .ak, .al, .am, .ap, .c, .d {
        stroke-miterlimit: 10;
      }

      .d {
        stroke: #000;
        stroke-width: 0.04px;
      }

      .e {
        fill: #999;
      }

      .f {
        fill: #aaa3a6;
      }

      .g {
        fill: #666;
      }

      .h {
        fill: #001413;
      }

      .i {
        fill: #b2001d;
      }

      .j {
        fill: #000708;
      }

      .ab, .ac, .k {
        fill: #fff;
      }

      .l {
        fill: #26211e;
      }

      .m {
        fill: #171312;
      }

      .n {
        fill: #312a26;
      }

      .o {
        fill: #c8a085;
      }

      .p {
        fill: #3c2821;
      }

      .q {
        fill: #614e43;
      }

      .r {
        fill: #333;
      }

      .s {
        fill: #986675;
      }

      .t {
        fill: #1a1a1a;
      }

      .ah, .ai, .aj, .ak, .al, .am, .u {
        fill: #ccc;
      }

      .v {
        fill: #bf997d;
      }

      .w {
        fill: #473a33;
      }

      .x {
        fill: #5c000a;
      }

      .y {
        fill: #362e2a;
      }

      .z {
        fill: #ad7f68;
      }

      .aa {
        fill: #a3826b;
      }

      .ab, .ac {
        stroke: #fff;
      }

      .ab {
        stroke-width: 0.08px;
      }

      .ac, .ad, .ag, .ah, .aj {
        stroke-width: 0.15px;
      }

      .ad, .ae, .ap {
        fill: #662e0e;
        stroke: #70513e;
      }

      .ae {
        stroke-width: 0.19px;
      }

      .af, .ag {
        fill: #3d3330;
      }

      .ag {
        stroke: url(#c);
      }

      .ah {
        stroke: url(#d);
      }

      .ai {
        stroke-width: 0.08px;
        stroke: url(#e);
      }

      .aj {
        stroke: url(#f);
      }

      .ak {
        stroke-width: 0.1px;
        stroke: url(#g);
      }

      .al {
        stroke-width: 0.13px;
        stroke: url(#h);
      }

      .am {
        stroke-width: 0.13px;
        stroke: url(#i);
      }

      .an {
        fill: #5e4233;
      }

      .ao {
        fill: #f2f2f2;
      }

      .ap {
        stroke-width: 0.18px;
      }
    </style>
    <clipPath id="a" transform="translate(-848.17)">
      <circle class="a" cx="930.25" cy="78.07" r="64.75"/>
    </clipPath>
    <linearGradient id="b" data-name="Carbon 01" y1="78.36" x2="160.16" y2="78.36" gradientUnits="userSpaceOnUse">
      <stop offset="0" stop-color="#85868c"/>
      <stop offset="0.34" stop-color="#c1c1c2"/>
      <stop offset="0.69" stop-color="#5c5c63"/>
      <stop offset="1" stop-color="#2f2f33"/>
    </linearGradient>
    <linearGradient id="c" x1="908.11" y1="120.22" x2="937.68" y2="120.22" xlink:href="#b"/>
    <linearGradient id="d" data-name="Chrome 02" x1="79.57" y1="123.3" x2="82.22" y2="123.3" gradientUnits="userSpaceOnUse">
      <stop offset="0.07" stop-color="#66605c"/>
      <stop offset="0.09" stop-color="#29241e"/>
      <stop offset="0.09" stop-color="#29241e"/>
      <stop offset="0.11" stop-color="#29241e"/>
      <stop offset="0.11" stop-color="#39342e"/>
      <stop offset="0.11" stop-color="#68635e"/>
      <stop offset="0.11" stop-color="#908c87"/>
      <stop offset="0.12" stop-color="#b1ada8"/>
      <stop offset="0.12" stop-color="#cac7c2"/>
      <stop offset="0.13" stop-color="#ddd9d4"/>
      <stop offset="0.13" stop-color="#e7e4df"/>
      <stop offset="0.14" stop-color="#ebe8e3"/>
      <stop offset="0.16" stop-color="#ebe8e3"/>
      <stop offset="0.23" stop-color="#a49b90"/>
      <stop offset="0.24" stop-color="#a2998e"/>
      <stop offset="0.24" stop-color="#9c9388"/>
      <stop offset="0.25" stop-color="#999084"/>
      <stop offset="0.25" stop-color="#999084"/>
      <stop offset="0.26" stop-color="#999084"/>
      <stop offset="0.26" stop-color="#968e82"/>
      <stop offset="0.27" stop-color="#8b8379"/>
      <stop offset="0.29" stop-color="#847d74"/>
      <stop offset="0.33" stop-color="#827b73"/>
      <stop offset="0.39" stop-color="#827b73"/>
      <stop offset="0.4" stop-color="#827b73"/>
      <stop offset="0.42" stop-color="#817c75"/>
      <stop offset="0.52" stop-color="#918d87"/>
      <stop offset="0.52" stop-color="#8e8a84"/>
      <stop offset="0.57" stop-color="#7c7671"/>
      <stop offset="0.71" stop-color="#7d7772"/>
      <stop offset="0.74" stop-color="#2b2924"/>
      <stop offset="0.8" stop-color="#2b2924"/>
      <stop offset="0.84" stop-color="#fdfcf9"/>
      <stop offset="0.85" stop-color="#fdfcf9"/>
      <stop offset="0.89" stop-color="#b7aea5"/>
      <stop offset="0.91" stop-color="#817974"/>
      <stop offset="1" stop-color="#817974"/>
    </linearGradient>
    <linearGradient id="e" x1="116.98" y1="136.23" x2="117.73" y2="136.23" xlink:href="#d"/>
    <linearGradient id="f" x1="84.24" y1="98.82" x2="86.89" y2="98.82" xlink:href="#d"/>
    <linearGradient id="g" x1="107.59" y1="100.38" x2="109.25" y2="100.38" xlink:href="#d"/>
    <linearGradient id="h" x1="85.08" y1="85.01" x2="87.35" y2="85.01" xlink:href="#d"/>
    <linearGradient id="i" x1="98.73" y1="138.75" x2="101.13" y2="138.75" xlink:href="#d"/>
  </defs>
  <title>intevity</title>
  <g class="b">
    <rect class="c" x="0.14" y="0.14" width="159.87" height="156.43"/>
    <g>
      <path class="d" d="M937.55,86.41" transform="translate(-848.17)"/>
      <path class="e" d="M936.21,88.75a.1.1,0,0,0,0,.07c.44.21,4.12,1.92,5.38,1.93a6.59,6.59,0,0,0,2-.4,5,5,0,0,0,1.39-1c.19-.34,1.54-3.71,1-5.56a8.86,8.86,0,0,0-2.1-3c-.3-.2-.95-.52-.94-.43.16,1.19,1.12,6.18.19,6.7a6.54,6.54,0,0,1-5.93-.82C935.36,84.89,936.11,88.33,936.21,88.75Z" transform="translate(-848.17)"/>
      <path class="f" d="M943.31,80.73a.51.51,0,0,0-.1-.21S943.23,80.57,943.31,80.73Z" transform="translate(-848.17)"/>
      <path class="f" d="M963.71,140.76l-2.8-26.71-2-.23c0-.4-.08-.74-.11-1-.16-1.77-1.86-5.75-4.07-10.34,0,0,0-.22,0-.5-.67-4-8.65-19-8.65-19l-.26,2.39c-1.28-2.34-2.22-4-2.53-4.62.36,1.06.77,5.25.43,5.8a2.44,2.44,0,0,1-1.88,1,6.7,6.7,0,0,1-2.7-.22,2.07,2.07,0,0,1-1.12-.53,22.74,22.74,0,0,1-2,2.85c-.45.42-.16,4.32.06,6.53h-.2l-.23,5.23,5.41,12.39.1-.07c1.84,5.4,4.39,12.91,4.42,13.9,0,1.55,4.75,10.61,4.75,11s1.45,11.2,1.45,11.4,11.16-.07,11.16-.07c0-.91-.42-5.14-1-10.47Z" transform="translate(-848.17)"/>
      <path class="g" d="M938.11,86.85c.26.07,2.89,1,3.81.71s1.74-.79,1.78-1.13a41.07,41.07,0,0,0-.71-6,39.48,39.48,0,0,1,2.44,3.83c.05.38.52,5.39-1.92,6.16s-6.15-.55-7.26-1.63S938,86.75,938,86.75Z" transform="translate(-848.17)"/>
      <path class="h" d="M949.25,109.59s2.1-5.2-1.9-8.7-6.61.8-6.61.8-1.55,5,4.26,8.55c0,0-2.16,2.76-2.21,3.86,0,0-1.77-5.83-3.6-5.89,0,0,1.55,6,1.8,7.24s2.56,4.8,2.56,4.8l2.05-2.9s3.2,2.75,3.4,3.1a19.57,19.57,0,0,0-.7-5c-.35-.55-1-3.21.85-4a2.3,2.3,0,0,1,2.8.4l1.4,1.76s0-.2.45.15a13.29,13.29,0,0,1,2.1,3.4c.1.55.4.25.4.25s-1.25-3.8-2.15-4.66S951.15,109.74,949.25,109.59Z" transform="translate(-848.17)"/>
      <path class="h" d="M953.55,117.25s.75,0,1.2,1.55,1,5.35.45,5.45-1.15,0-2.1-3.35C953.1,120.9,952.55,117.45,953.55,117.25Z" transform="translate(-848.17)"/>
      <path class="h" d="M956.25,117.8s-1.2,0-.3,3.45c0,0,0,.85.3,1S957.35,121.9,956.25,117.8Z" transform="translate(-848.17)"/>
      <path class="i" d="M951,144.17c.05-.2.46-.27.64-.17a10,10,0,0,0,3.54,1.31,3.2,3.2,0,0,0,1.69-.51,7.77,7.77,0,0,0,1.66-1.53c.14-.35,1.73-2.34,1.79-2.91s.62-2.69.38-3.22.94.53,1.08.82a39.76,39.76,0,0,1,.91,4.44c0,.27.23,3.48.29,4a20.59,20.59,0,0,1,.26,3.14c-.1.29-10.41.16-12.29.13a.29.29,0,0,1-.3-.3l-.14-3.67a.34.34,0,0,1,.05-.17A6,6,0,0,0,951,144.17Z" transform="translate(-848.17)"/>
      <path class="j" d="M960.94,137.56s-1.05,3.9-1.76,4.84-1.36,2.2-2.64,2.8-3.8-.43-3.8-.43a18.83,18.83,0,0,1-2.13-.77c-1.25-.49-1.69-5.8-1.84-9.29.31,0,.22.08.45-.13a6.34,6.34,0,0,0,2.42,2.94,3.74,3.74,0,0,0,2.81.49,6.58,6.58,0,0,0,.64-1.18c.3-.71,1-2.27.83-2.65l0-.09-1-.17s-.22,2.22-1,2.7a1.41,1.41,0,0,1-1.61-.07,7.43,7.43,0,0,1-1-1.48c-.1-.23-1.34-3.63-1.39-4.06s-.32-1.57-.4-1.91-2-4.86-2-4.92-.37.25-.53.22c-.47-.09.42-1,.42-1s.83.39.88.57-.17.17-.37.1l-.21-.08c0,.1,1.07,3,1.26,3.31s1.1,2.05,1.25,2.26a5,5,0,0,0,1.23,1.49,6.23,6.23,0,0,0,1,.85,8.06,8.06,0,0,0,2.1,1.07,7.46,7.46,0,0,0,2.44.25,4.82,4.82,0,0,0,1.73-1.33c.44-.7,2.1-4.59,2.18-4.76a14.16,14.16,0,0,1-.71,2.5c-.3.49-.58,1.76-.82,2.11a10.23,10.23,0,0,1-1.6,1.7C957.32,133.7,960.38,135.69,960.94,137.56Z" transform="translate(-848.17)"/>
      <path class="k" d="M959.73,145.13a2,2,0,0,0-.35,1.3c.07.72.29,3,.36,3.15s1,.28,1.14.06.15-.15.15-.6S960.52,144.54,959.73,145.13Z" transform="translate(-848.17)"/>
      <path class="k" d="M961,141.7s-.27.3-.2,1.58.33,3.64.63,3.95.43-.36.43-.36S961.73,141.15,961,141.7Z" transform="translate(-848.17)"/>
      <path class="i" d="M950,130.23s3.58,3.75,3.53,4.75-.42,1.33-.62,1.31-1.33-.08-1.65-1-1.56-4.48-1.41-4.75Z" transform="translate(-848.17)"/>
      <path d="M956.52,122.44s0,.45.26.45a1.36,1.36,0,0,0,.55-.16l.71-.47a8.61,8.61,0,0,1,1.08-.74.71.71,0,0,0,.39-.39l0-.08c.07-.13.34-.24.47-.3a1.16,1.16,0,0,0,.27-.18c.2-.19.17,0,.17,0S956.24,124.4,956.52,122.44Z" transform="translate(-848.17)"/>
      <ellipse cx="113.12" cy="122.76" rx="1.39" ry="2.91"/>
      <path class="l" d="M947.05,130.41a1.35,1.35,0,0,0-.08-.4c-.27-.82-1.87-5.56-3.88-10.94l.08.13s-5.38-16.79-7.08-17.84c0,0,0,.82,0,1.87v0a1.5,1.5,0,0,0-2.68.35,8.22,8.22,0,0,0-.37,3.76c.48,3.15,9.28,20.33,11.87,22.59C946.85,131.6,947.06,130.88,947.05,130.41Z" transform="translate(-848.17)"/>
      <ellipse class="l" cx="86.87" cy="102.7" rx="1.78" ry="1.54"/>
      <g>
        <path class="m" d="M951.86,149.71l-63.7.16V143.6c2.49,3.43,5.42,5.41,8.54,5.41,7.7,0,14.17-11.95,16.08-28.18,5.51-4.77,9.13-12.79,9.13-21.88,0-13.4-7.87-24.48-18.08-26.25a9.33,9.33,0,0,0,2.79-1s3.27-1.64,4.54-1.69a10.63,10.63,0,0,1,1.13,0c.69,0,2.49,0,2.49,0l5.29-4s6.74,6,11.51,10.81a.16.16,0,0,1,0-.08c.2-.17.85.26,1.43,1a2.62,2.62,0,0,1,.76,1.45,18.24,18.24,0,0,1,2.24,2.82s.48.41.44.64,1.57,1.19,1.76,2.91-2.39,4-2.39,4a4,4,0,0,1,0,.83c0,.64.38,9.6.1,10.52s-.14,7.05,0,8.4,3.68,15.11,10,20.59,5.86,18.09,5.86,19.59A.32.32,0,0,0,951.86,149.71Z" transform="translate(-848.17)"/>
        <path class="m" d="M951.86,149.71c.68,1.29,10.92.31,10.92.31s0-.12,0-.34Z" transform="translate(-848.17)"/>
      </g>
      <path class="m" d="M964.81,116.4c-.38-2.25-3.53-13.06-4.35-14.56s-1.58-1.73-1.58-1.73c-.07-1,.38-6,.23-7.5S958.06,89.9,958,89s-1.8-2.92-1.8-2.92L957.6,86c-1.21-1.83-11.78-7.87-13.83-9l-.07,0-.28-.16v.08h-.06c-.66,0-1.19.86-1.19,1.93s.53,1.93,1.19,1.93h.13c7.54,6.11,16.24,37.39,17.13,39.6s2,26.24,2.16,29.38h5.44C968.21,147.57,965.18,118.65,964.81,116.4Z" transform="translate(-848.17)"/>
      <ellipse class="n" cx="71.95" cy="66.05" rx="3.26" ry="6.52"/>
      <path class="o" d="M919.38,65.31c-.29-.21-.8-11.1-.1-12.61s5.6-6.1,7.3-7.3,10-9,13.31-10.61,10.31-2,12.81-1a9.45,9.45,0,0,1,4.5,3.9,3.21,3.21,0,0,1,.37,1.82s.71,1.12.64,1.46-.64,2.44-1.24,2.93l0,.37s1.73,1.35,1.91,1.92a3.51,3.51,0,0,1,0,2,4.4,4.4,0,0,1-1.39,1.08c-.26,0-.9,1.69-1.2,1.73s.72,6.49.72,6.49-1.8,8.45-4.88,9.38c0,0-7.24,5-7.73,6.38,0,0-.75,2.71-.83,3.38s-1,3-.71,3.42,1.46,6.11.49,6.83a4,4,0,0,1-3,.6,15.14,15.14,0,0,1-2.21-.68c-.19-.11-.19-1.8-.45-2.33a8.92,8.92,0,0,0-1.54-1.76c-.34-.3-2.33-4.09-4-5.29S920.67,66.28,919.38,65.31Z" transform="translate(-848.17)"/>
      <path class="p" d="M952.44,49c-.05,0-.26-1.08,1-1.44a6.75,6.75,0,0,1,3.27.39s.39.21.37.38-.52.73-.82.69a6.26,6.26,0,0,0-2.46.06C952.93,49.34,952.63,49.08,952.44,49Z" transform="translate(-848.17)"/>
      <path class="q" d="M952.63,50.9c-.18,0-4.06.1-4.53,1.43s-2.35,5-2.33,6-1.2,2.7.25,4.8,10.66,6.46,11.91,6.28,3-.25,2.93-.87-1.33-.81-2.45-3.11-1.33-2.65-1.41-4.62a8.24,8.24,0,0,0-.27-2.48C956.53,57.28,960,50.38,952.63,50.9Z" transform="translate(-848.17)"/>
      <path class="r" d="M955.41,54.81s.18.86-.26.91c0,0-3.8-1.44-5.44-1S951.55,53.15,955.41,54.81Z" transform="translate(-848.17)"/>
      <path class="e" d="M955.08,54.8s.32.42,0,.69c0,0-3-1.35-4.73-.94S952.12,53.26,955.08,54.8Z" transform="translate(-848.17)"/>
      <path class="s" d="M951.73,54.57a6.05,6.05,0,0,0-1.47.13.13.13,0,0,0,0-.06c3.67-1,5.18.64,5.18.64s.73-.35-.2-1.15a3.53,3.53,0,0,0-2.1-.8,7.18,7.18,0,0,0-2.73.3,14.58,14.58,0,0,0-2.5,1.93l.11-.06-.1.11a2.46,2.46,0,0,0,1-.19l0,0,.1-.05c.22-.08.44-.17.63-.26a5.63,5.63,0,0,1,1.4-.08c1.81,0,3.38.23,4.11,1.19a7.23,7.23,0,0,0,.68.47C955.6,55.53,953.82,54.57,951.73,54.57Z" transform="translate(-848.17)"/>
      <path class="p" d="M915.7,55.92c-.33-.13-4.25-2.8-4.35-10.06s.15-16.26-.15-16.76c0,0-2.73-1.8-2.83-2.79s1.88-2.63,2.16-2.57a5.59,5.59,0,0,0,1.76-.34,29.23,29.23,0,0,1,4.81-1.3c1.44-.15,2.74-1.05,3.5-.69s9,.19,9,.19,1.8.15,2.8.2,18.72-3.06,23.82,12.8a3.88,3.88,0,0,1,.47.58,7.31,7.31,0,0,1,1.07,4.17s-.67-6.72-11-5.76c-.21,0-8.65,1.08-14.13,6.77,0,0-6.77,7-7.24,7s-4.34,2.13-5.14,3.93-.67,4.6-1,4.9S916.7,56.32,915.7,55.92Z" transform="translate(-848.17)"/>
      <path class="p" d="M908.86,61.76s4.09-4.22,5.4-3.79.87.94.87.94-4.21,1.59-4.69,2.46S909.12,62.38,908.86,61.76Z" transform="translate(-848.17)"/>
      <path class="t" d="M932.88,40c.37,0,9.79-1.73,9.79-1.73s.79,0,1,1.24,0,3.12,1.09,3.72,5.9,2.55,6.87,2.51a4.2,4.2,0,0,0,3.08-3.11s.56-.62,1.48.93a7.79,7.79,0,0,1,.55-1.77,1.84,1.84,0,0,1,1.71,0c.67.4,3.17,1.3,3.3,2.72s-.13,4.21-.6,4.63c0,0-.45.65-2.35-.8l-.1-.06-.41.54s1.73.87,1.93.92,1,.25,1.23-.12a22.71,22.71,0,0,0,.87-2.55c.08-.28.15-.5.15-.5s.53-1.51.28-1.93-2.78-3.58-5.13-3.5c0,0-2.45.57-4.53-2.25,0,0-5.08-3.06-8.93-3l-7.55,1.23-1.68,1Z" transform="translate(-848.17)"/>
      <path class="u" d="M945.45,37.12s5.65-.53,8.25,3.6c0,0,.88,3.4-1.3,4.23,0,0-2.43.6-6.43-1.93C946,43,943.5,41.6,945.45,37.12Z" transform="translate(-848.17)"/>
      <path class="u" d="M957,41.89c.21,0,2.44-.5,4.61,2.18,0,0,.7,3.63-.53,5.16,0,0-.65.4-2.2-.85,0,0,.53-2.13-.32-2.68a21.5,21.5,0,0,1-2.08-1.93,1.61,1.61,0,0,1,.49-1.86Z" transform="translate(-848.17)"/>
      <path class="v" d="M925.93,56.51c-.17-1.3.4,1.47.8,1.8a37,37,0,0,0,3.43,3.31c2.34,1.75,15.28,3.74,18.14,3.89.33,0-8,0-9,0a18.1,18.1,0,0,1-10.48-2.82C928.34,62.36,926.56,61.08,925.93,56.51Z" transform="translate(-848.17)"/>
      <path class="w" d="M925.42,85.84c-.15-.83-.82-4.22-1.66-4.72a2.72,2.72,0,0,0-.92-.32.52.52,0,0,0,.23-.18c.33-.46,0-1.57.09-1.79s-1.39-.9-1.39-.9l-.29,0a1.08,1.08,0,0,0-1-.68v0h0c.34,0,.75-.67.87-1.53S920,74.11,920,74.11s.07.76-.32.93a27.91,27.91,0,0,1-.2-4.82c-.05-.06-.09-.08-.11-.08a2.91,2.91,0,0,0,.26-.61c.15-.69-1-.94-1-.94l-.23,0a1.67,1.67,0,0,0,.38-.58,1.75,1.75,0,0,0-.36-1.42,1.57,1.57,0,0,0,.4-1,1.59,1.59,0,0,0-.95-1.46c.78-1.11,1.45-2.37,1.06-3a1.7,1.7,0,0,0-.33-.2,6.15,6.15,0,0,0,.85-2s.34-5.55-.26-5.89c0,0-2.74,1.05-3,3s-1.8,1.58-1.8,1.58,0,.09,0,.26A2.28,2.28,0,0,0,913,60.38a1.88,1.88,0,0,0-.6,1.36v0c-1-.13-1.82.25-1.92.75-.15.8.1,1.45.65,1.65a5.85,5.85,0,0,0,1,.47s0,.05,0,.07c-.54.13-1,.34-1.06.66-.22,1,1.4,1.6,1.4,1.6l.21-.07s0,.06,0,.09a.85.85,0,0,0,.08.35l0,0a1.44,1.44,0,0,0-.25,1.81A6.28,6.28,0,0,0,914.3,71v.11a1.83,1.83,0,0,0,.15.76,1.49,1.49,0,0,0-.41,1.18c.19.75.41,1.91.94,2a2.35,2.35,0,0,0,.94-.27,2.5,2.5,0,0,0-.08,1s.09.07.19.1a1.57,1.57,0,0,0,.34,1.05,1.18,1.18,0,0,0,0,.2c-.15,1.06-.07,1,.08.77,0,0,0,.06,0,.09,0,.4.46.72,1,.72a1.33,1.33,0,0,0,.65-.16,1.15,1.15,0,0,1,0,.19c0,1.13.6.12,1.58,1.32s.63-.49,1.27.82a.67.67,0,0,0,.06.12.52.52,0,0,0-.17.15,7.08,7.08,0,0,0,.45,3.9c.6.79,2.78,3.6,2.63,4.16a16,16,0,0,1-.53,2.37,2.57,2.57,0,0,0,.08,1.91l.3-1.12.07,1.65s.49-1.92.68-2.59-.08,2.06-.08,2.06.11,2.7.94-1.12A14.67,14.67,0,0,0,925.42,85.84ZM914.56,68l-.12-.11,0,0Zm1.27,3.11a.46.46,0,0,0,.06-.25l.11,0a2.33,2.33,0,0,0,0,.37A1,1,0,0,0,915.83,71.08Zm2.5,3.68a2.2,2.2,0,0,0-1.39-1.57l0-.1a.71.71,0,0,0,.41-.63l.35,0c.86.15.48-.56.56-.75a1.1,1.1,0,0,1,.09-.15,1.31,1.31,0,0,0,.28-.09,5.14,5.14,0,0,0-.62,2c.13.55.51.78.52,1.18Z" transform="translate(-848.17)"/>
      <path class="x" d="M925.68,84.4c-.07-.33,1.54-.44-.5-.5-.76,0-1.58,0-2.32,0,.73-.09,1.55-.26,2.32-.4,1.61-.28,0-1.89-.12-1.45-.08.29-1.26.66-2.87.67a5.47,5.47,0,0,0,2.56-.83c.43-.5.19-1.12-1-.39s-4.27.06-4,.5a1.47,1.47,0,0,0,.88.62,11.38,11.38,0,0,1-1.25-.23A8.05,8.05,0,0,0,921,83.79a1.61,1.61,0,0,0,.63.17l-.94.05c.81.51-.12,1.29.62,1.06a.74.74,0,0,1,.48,0c-.19.38-.58.76.2.81,0,0-.31.5.55,1s2-.39,3.39-.67l-.24-.56s-.25,0-.61,0l.11-.07C925.8,85,926.91,84.35,925.68,84.4Zm-1.46.43a1.72,1.72,0,0,1-1.07.19C923.55,84.93,923.91,84.87,924.22,84.83Z" transform="translate(-848.17)"/>
      <path class="w" d="M946.29,76.33a14.78,14.78,0,0,0-1.37-.59L946,76c.56-2.68-1.32-3.26-1.47-3.3,0,0-.77,1.27-.77,1.33s-.13,1.24-.15,1.31a4.32,4.32,0,0,0,.5.17l-.29,0c-.42,0-.46,1.64-.46,1.64s3.9,2,4.06,2C947.44,79.1,947.65,77,946.29,76.33Z" transform="translate(-848.17)"/>
      <path class="w" d="M956.65,85.18s.05,0,.48-.6.6-.4.5-1.15.22-.81-.13-1-1-1-.42-.63,1,.3,1,1.1.32,1.53-.41,2-.62.78-.1,1,.3-.15.78.38.63.6.3.87-.27,1.58-.27,1.58a.87.87,0,0,1,.82.9c.08.9.3,3.08-.52,1.35,0,0,.8.54-.25-.93s-.12-2.07-.29-2.7-.55-1.25-.8-1.31S956.65,85.18,956.65,85.18Z" transform="translate(-848.17)"/>
      <path class="y" d="M922.17,99c0-14.63-9.38-26.49-20.94-26.49a16.62,16.62,0,0,0-3.4.35,6.35,6.35,0,0,0-.87,0c-2.94,0-5.7,1.74-8.1,4.81-5.19,4.82-8.57,12.6-8.57,21.38a32.78,32.78,0,0,0,.33,4.69c-.2,2.35-.3,4.77-.3,7.24,0,21.06,7.45,38.13,16.64,38.13,7.7,0,14.17-11.95,16.08-28.18C918.55,116.05,922.17,108,922.17,99Z" transform="translate(-848.17)"/>
      <path class="m" d="M921.92,99c0,9.09-3.62,17.11-9.13,21.88-1.91,16.23-8.38,28.18-16.08,28.18-3.12,0-6.05-2-8.54-5.41-4.86-6.66-8.1-18.82-8.1-32.72,0-2.48.1-4.9.3-7.24A32.78,32.78,0,0,1,880,99c0-8.58,3.22-16.2,8.22-21l.36-.34a16.35,16.35,0,0,1,1.19-1.39c2.1-2.2,4.44-3.42,6.9-3.42a6.11,6.11,0,0,1,.86,0,17,17,0,0,1,6.27-.11C914.05,74.47,921.92,85.55,921.92,99Z" transform="translate(-848.17)"/>
      <path class="o" d="M920.09,50.89c-.05,0,0,0,.08.4a10.25,10.25,0,0,0,3.31,3.59c1.11.43,3.9,0,2.79-3l-.42-1.3s-2.72-2.58-4.14-2a2.7,2.7,0,0,0-1.61,2Z" transform="translate(-848.17)"/>
      <path class="z" d="M921.51,50a.07.07,0,0,0,0,.11,7.86,7.86,0,0,1,2.88,1c.59.59.83-.38.83-.38a1.8,1.8,0,0,0-.4-1.11c-.38-.33-1-.45-.94-.83s-.33-.38-.36-.35S921.91,49.58,921.51,50Z" transform="translate(-848.17)"/>
      <path class="aa" d="M926.63,53.08c-1.45,5.33-5,.76-6.5-1.42a.09.09,0,0,0,0-.06c4,5.49,5.8,2.9,6.4,1.45A.15.15,0,0,0,926.63,53.08Z" transform="translate(-848.17)"/>
      <path class="k" d="M930.38,32.38a17.72,17.72,0,0,0,2.1-1.62c.21-.31-2.21-.5-2.78.46C929.7,31.22,930.74,31.59,930.38,32.38Z" transform="translate(-848.17)"/>
      <path class="k" d="M939,27s2-3.93,4.34-1.64" transform="translate(-848.17)"/>
      <path class="k" d="M939.63,23.79c.08-1.94-2.78-1.55-3.06-.55" transform="translate(-848.17)"/>
      <path class="k" d="M942.87,29.62s2.5-.57,2.92,0-.16,1.15-.2,1.16-1.25.52-1.73.19-.42-.67-.41-.72S943.13,29.62,942.87,29.62Z" transform="translate(-848.17)"/>
      <path class="k" d="M951.58,29.44s.16-.19.51,0a5.27,5.27,0,0,1,2.12,2.18,7.26,7.26,0,0,0-1.76-1C952.05,30.63,951.38,29.72,951.58,29.44Z" transform="translate(-848.17)"/>
      <path class="k" d="M949.57,25a11,11,0,0,0,1,1.22,7.35,7.35,0,0,0,1.28.68A4.19,4.19,0,0,0,949.57,25Z" transform="translate(-848.17)"/>
      <path class="k" d="M931.48,35.55c-.05,0,1.73-3.07,4.3-1.83a18,18,0,0,0-2.71,1.6A1.27,1.27,0,0,1,931.48,35.55Z" transform="translate(-848.17)"/>
      <path class="k" d="M923.72,41.7s-.41.64.71.85,1.56.15,1.73-.64.51-1.2-.36-1.26A2.39,2.39,0,0,0,923.72,41.7Z" transform="translate(-848.17)"/>
      <path class="k" d="M922.71,39.85c-.72.48-.87,1.57-1.47,1.12s-.37-.67.19-.82S922.71,39.85,922.71,39.85Z" transform="translate(-848.17)"/>
      <path class="k" d="M923.19,38.08c-.78.53-1,.72-.6.72s.57.11,1-.15,1-.42.56-.64A1.06,1.06,0,0,0,923.19,38.08Z" transform="translate(-848.17)"/>
      <path class="k" d="M923.34,36.28c-.86.34-1.16.53-.9.79s.27.41.87.19.78-.27,1-.6S923.34,36.28,923.34,36.28Z" transform="translate(-848.17)"/>
      <path class="k" d="M924.54,34.78c-.82.53-1.35.68-.48.71s1.46-.22,1.46-.63S924.54,34.78,924.54,34.78Z" transform="translate(-848.17)"/>
      <path class="k" d="M925.11,33.09c-.6.6-1.13.94-.38.79s.57-.3.9-.64S925.11,33.09,925.11,33.09Z" transform="translate(-848.17)"/>
      <path class="k" d="M926.16,31.52c-.6.18-1.13.6-.9.71s.45.3.79.15.52-.15.52-.38S926.16,31.52,926.16,31.52Z" transform="translate(-848.17)"/>
      <path class="k" d="M926.46,30c-.3.07-1.24.26-.94.67s-.11.87.64.45.94-.71,1-.86S926.46,30,926.46,30Z" transform="translate(-848.17)"/>
      <path class="k" d="M928,28.51c-1,.19-2,.49-1.32.6a3,3,0,0,0,1.58-.37Z" transform="translate(-848.17)"/>
      <path class="k" d="M928.52,27.31c-.9.19-1.46.49-1,.64a2.4,2.4,0,0,0,1.42,0C929.12,27.8,928.52,27.31,928.52,27.31Z" transform="translate(-848.17)"/>
      <path class="k" d="M928.75,26.11c-.49.26-.6,1.09.11.94s1.69-.6,1.61-.79S928.75,26.11,928.75,26.11Z" transform="translate(-848.17)"/>
      <path class="k" d="M930.29,24.87c-1,0-2.63.19-1.69.45a4.06,4.06,0,0,0,1.87.3C930.7,25.51,930.29,24.87,930.29,24.87Z" transform="translate(-848.17)"/>
      <path class="k" d="M931.71,23.94c-.9,0-1.65.41-.82.45s.78.11,1.24,0S931.71,23.94,931.71,23.94Z" transform="translate(-848.17)"/>
      <path class="k" d="M932.69,22.77c-.15,0-2.55,0-1.5.38a4,4,0,0,0,2.14.11C933.51,23.18,932.69,22.77,932.69,22.77Z" transform="translate(-848.17)"/>
      <path class="k" d="M933.18,22.06c-.27.07-.6.56.07.6S933.18,22.06,933.18,22.06Z" transform="translate(-848.17)"/>
      <path class="k" d="M924.28,21.42c.15,0-3.22.45-2.59,2.29s3.49-1.39,3.49-1.39-1.87,3.64-3.37,2.33S922,20.6,924.28,21.42Z" transform="translate(-848.17)"/>
      <path class="ab" d="M924.85,23.11s1.72-.26,1.42.75-5.82,3.34-7.58,6.38,2.67.41,2.67.41-2.41.94-2.52.38,2.07-2.74,2.93-3.38S929.63,22.81,924.85,23.11Z" transform="translate(-848.17)"/>
      <g>
        <path class="k" d="M922,33.94a1.45,1.45,0,0,0-1.56-1.77c-1.87.07-3.57,3-3.57,3s-.63,1.2.5,1.7,1.5-.08,1.85.15a9.72,9.72,0,0,1,.86.67l.06.05s-.8-.65-1.17-.52a4.2,4.2,0,0,1-2.08-.35,2.5,2.5,0,0,1-.45-1.3C916.38,34.77,921.38,28.81,922,33.94Z" transform="translate(-848.17)"/>
        <path class="k" d="M922,33.94a1.65,1.65,0,0,0-.44-1.45,1.7,1.7,0,0,0-1.5-.25,5.08,5.08,0,0,0-2.46,1.91,4.9,4.9,0,0,0-.84,1.33,1.38,1.38,0,0,0,0,.78,1.07,1.07,0,0,0,.53.56,2,2,0,0,0,1.53.17.48.48,0,0,1,.39,0l.32.24.62.49h0a1.71,1.71,0,0,0-1.52-.49A5.18,5.18,0,0,1,917,37a2,2,0,0,1-.53-1.54,5.47,5.47,0,0,1,.92-1.4A6.76,6.76,0,0,1,920,32a1.24,1.24,0,0,1,1.5.4A3.26,3.26,0,0,1,922,33.94Zm0,0a3.33,3.33,0,0,0-.52-1.56A1.23,1.23,0,0,0,920,32a7,7,0,0,0-2.6,2,5.26,5.26,0,0,0-.9,1.39,1.91,1.91,0,0,0,.51,1.5,5,5,0,0,0,1.62.32,1.55,1.55,0,0,0,.42-.05.79.79,0,0,1,.4.1,3.28,3.28,0,0,1,.71.45h0l-.62-.49-.32-.24a.5.5,0,0,0-.38,0,2,2,0,0,1-1.54-.17,1.06,1.06,0,0,1-.53-.57,1.33,1.33,0,0,1,0-.79,5.17,5.17,0,0,1,.83-1.34,5.15,5.15,0,0,1,2.48-1.92,1.79,1.79,0,0,1,1.51.27A1.58,1.58,0,0,1,922,33.94Z" transform="translate(-848.17)"/>
      </g>
      <path class="ac" d="M917.83,22.13c-.93.3-1.43,1.39-.64,1.13s.45,0,.9-.45S918.54,21.91,917.83,22.13Z" transform="translate(-848.17)"/>
      <path class="ac" d="M917.75,23.94c-.18.3-.9.71,0,.33s1.73-.52,1.43-.79S917.75,23.94,917.75,23.94Z" transform="translate(-848.17)"/>
      <path class="ac" d="M917.94,24.84c-.33-.7-.75.48-.52.75s.07.63.45.11S918.28,25.55,917.94,24.84Z" transform="translate(-848.17)"/>
      <path class="ac" d="M918.17,26.22c-.49.68-.75,1.32-.23,1s.15,0,.64-.53,1.24-.71.45-.78S918.17,26.22,918.17,26.22Z" transform="translate(-848.17)"/>
      <path class="ac" d="M916.55,30.8c-.86.38-1.95.57-1.24.79s0,.71.94.19,1-.56,1-.83S916.55,30.8,916.55,30.8Z" transform="translate(-848.17)"/>
      <path class="ac" d="M927.92,24.2c-1,1.05-1.31,1.57-1.42,1.27s0,0,.07-.75-.15-1.42.75-1S927.92,24.2,927.92,24.2Z" transform="translate(-848.17)"/>
      <path class="ac" d="M921.21,22.62s0-.94-.46-.19a2.93,2.93,0,0,0-.45,1.84c0,.53.38,1,.76.68s-.31-3.72,0-2.14Z" transform="translate(-848.17)"/>
      <path class="ac" d="M915,37.93s-1.42.94-1.23,1.5.48,1,.71.57A13.34,13.34,0,0,0,915,37.93Z" transform="translate(-848.17)"/>
      <path class="ac" d="M922.18,46.3c.23,0,.3.26.79-.07s1-.27.9-.87.52-1.54-.49-.52A5.89,5.89,0,0,0,922.18,46.3Z" transform="translate(-848.17)"/>
      <path class="ac" d="M925.26,44.35c-.32-.63-1.69,1.42-1.17,1.39S925.52,44.87,925.26,44.35Z" transform="translate(-848.17)"/>
      <path class="ac" d="M927,43.82s-1.76,1.17-1.53,1.43S927,45.06,927,43.82Z" transform="translate(-848.17)"/>
      <path class="ac" d="M918.92,44.8s1.57-.11,1.57-1S919.18,43.75,918.92,44.8Z" transform="translate(-848.17)"/>
      <path class="ac" d="M919.85,45.4s-1.5.34-1.57,1.05S919.22,47,919.85,45.4Z" transform="translate(-848.17)"/>
      <path class="ac" d="M928.3,43.07s-.83.3-.87.9S928.11,44.76,928.3,43.07Z" transform="translate(-848.17)"/>
      <path class="ac" d="M915.16,46.38s.19-2.86,1.77-4.06-3.23,1.09-2.67,4.88S915.16,46.38,915.16,46.38Z" transform="translate(-848.17)"/>
      <path class="ad" d="M934.71,33.77s-2.77.71-2.55,1.31S934.71,33.77,934.71,33.77Z" transform="translate(-848.17)"/>
      <path class="ad" d="M943.42,29.79s2.81-.11,1.91.64S943.42,29.79,943.42,29.79Z" transform="translate(-848.17)"/>
      <path class="ae" d="M939.57,26.51s2.75-.47,2.64-1.36S939.57,26.51,939.57,26.51Z" transform="translate(-848.17)"/>
      <path class="ad" d="M937,22.92s2.14-.34,2.14,0S937.87,23.52,937,22.92Z" transform="translate(-848.17)"/>
      <path class="ad" d="M930,26.3s-1.27-.23-1.35.26S930,26.3,930,26.3Z" transform="translate(-848.17)"/>
      <path class="ad" d="M926.46,30.16s-.79.3-.49.6S926.46,30.16,926.46,30.16Z" transform="translate(-848.17)"/>
      <path class="ad" d="M930,26.3s-1.57-.26-1.35.26S930,26.3,930,26.3Z" transform="translate(-848.17)"/>
      <path class="ad" d="M928.86,25.21s.83-.49,1.13-.11S928.86,25.21,928.86,25.21Z" transform="translate(-848.17)"/>
      <path class="ad" d="M917.75,23s.53-.83-.33-.56S917.75,23,917.75,23Z" transform="translate(-848.17)"/>
      <path class="ad" d="M915.5,31.4s1-.6,1.24-.33S916.44,31.63,915.5,31.4Z" transform="translate(-848.17)"/>
      <path class="ad" d="M914.79,38.23s-1,.79-.71,1.24S914.71,39.13,914.79,38.23Z" transform="translate(-848.17)"/>
      <path class="ad" d="M916.63,42.36s-3.31,3.41-2.14,5.14S913.66,44.84,916.63,42.36Z" transform="translate(-848.17)"/>
      <path class="ad" d="M925.75,41s-1.51.34-1.58.79S925.71,42.7,925.75,41Z" transform="translate(-848.17)"/>
      <path class="ad" d="M925,44.57s-1,.3-.68.64S925,44.57,925,44.57Z" transform="translate(-848.17)"/>
      <path class="ad" d="M926.76,44.16s-.86.34-.71.6S926.76,44.16,926.76,44.16Z" transform="translate(-848.17)"/>
      <path class="ad" d="M928.15,43.26s-.87.34-.6.6S928,43.71,928.15,43.26Z" transform="translate(-848.17)"/>
      <path class="ad" d="M918.43,26.52s-.56-.33,0-.37S918.43,26.52,918.43,26.52Z" transform="translate(-848.17)"/>
      <path class="ad" d="M917.94,22.43s-.3-.3-.6.15S917.15,23,917.94,22.43Z" transform="translate(-848.17)"/>
      <path class="ad" d="M920.87,22.7s-1,1.57-.19,1.84S920.87,22.7,920.87,22.7Z" transform="translate(-848.17)"/>
      <path class="ad" d="M953.89,31.25s-1.2-1.8-1.61-1.35S953.21,30.5,953.89,31.25Z" transform="translate(-848.17)"/>
      <path class="af" d="M909.57,122.7s-1,21.72-1.25,22.12,12,3.8,13.46,4.45c0,0,13.66-3.4,14.26-4,0-.25.7-22.42.55-23.32S909.57,122.7,909.57,122.7Z" transform="translate(-848.17)"/>
      <path class="ag" d="M908.2,115.4s21-2.86,26.41-1.5c0,0,3.61,6.7,2.91,7.75s-6.71,3.3-7.91,5.2c0,0-3.85-4.95-20.11-1.95Z" transform="translate(-848.17)"/>
      <ellipse class="ah" cx="80.89" cy="123.3" rx="1.25" ry="1.15"/>
      <ellipse class="ai" cx="117.36" cy="136.23" rx="0.34" ry="1.15"/>
      <ellipse class="aj" cx="85.56" cy="98.82" rx="1.25" ry="1.15"/>
      <ellipse class="ak" cx="108.42" cy="100.38" rx="0.78" ry="0.8"/>
      <ellipse class="al" cx="86.21" cy="85.01" rx="1.07" ry="0.98"/>
      <ellipse class="am" cx="99.93" cy="138.75" rx="1.13" ry="0.91"/>
      <path class="an" d="M955.74,40s-1.19-.63.63-.56,2.12.49,1.83,1S957.59,41.64,955.74,40Z" transform="translate(-848.17)"/>
      <path class="an" d="M952.78,36.89c-1-.63-4.67-1-6.24-1.08l-.12,0c-.36-.08-.67-.08-.68,0s.26.18.62.26a2.3,2.3,0,0,0,.32,0c3.14,1.15,7.5,3.21,7.56,2.57S954.12,37.7,952.78,36.89Z" transform="translate(-848.17)"/>
      <path class="m" d="M922.56,100.67c0-11.25-6.12-20.37-13.66-20.37a9.37,9.37,0,0,0-1.68.15c-2.64-4.17-5.85-6.61-9.3-6.61-9.07,0-16.42,16.79-16.42,37.49s7.35,37.5,16.42,37.5c7.82,0,14.36-12.49,16-29.21C919,116.64,922.56,109.28,922.56,100.67Z" transform="translate(-848.17)"/>
      <path class="ao" d="M920.78,36.29s-4.65.55-2.2-2.15S921,33.69,920.78,36.29Z" transform="translate(-848.17)"/>
      <path class="ap" d="M920.59,35.82s-.06-2.89-1.45-1.6S918.35,36,920.59,35.82Z" transform="translate(-848.17)"/>
      <path class="ap" d="M930.06,31.15s2-.62,2-.35-1.33.94-1.33.94S930.91,31.2,930.06,31.15Z" transform="translate(-848.17)"/>
    </g>
  </g>
</svg>
