<svg xmlns="http://www.w3.org/2000/svg" xmlns:xlink="http://www.w3.org/1999/xlink" viewBox="0 0 1562.43 1567.6">
  <defs>
    <style>
      .a {
        fill: none;
      }

      .b {
        clip-path: url(#a);
      }

      .ad, .c {
        stroke: #000;
      }

      .ab, .ac, .ad, .ae, .ag, .ah, .ai, .aj, .ak, .al, .am, .c {
        stroke-miterlimit: 10;
      }

      .c {
        stroke-width: 1.43px;
        fill: url(#b);
      }

      .d {
        fill: #999;
      }

      .e {
        fill: #aaa3a6;
      }

      .f {
        fill: #666;
      }

      .g {
        fill: #001413;
      }

      .h {
        fill: #b2001d;
      }

      .i {
        fill: #000708;
      }

      .ab, .ac, .j {
        fill: #fff;
      }

      .k {
        fill: #26211e;
      }

      .l {
        fill: #171312;
      }

      .m {
        fill: #312a26;
      }

      .n {
        fill: #c8a085;
      }

      .o {
        fill: #3c2821;
      }

      .p {
        fill: #614e43;
      }

      .q {
        fill: #333;
      }

      .r {
        fill: #986675;
      }

      .s {
        fill: #c1272d;
      }

      .t {
        fill: #1a1a1a;
      }

      .ah, .ai, .aj, .ak, .al, .am, .u {
        fill: #ccc;
      }

      .v {
        fill: #bf997d;
      }

      .w {
        fill: #473a33;
      }

      .x {
        fill: #5c000a;
      }

      .y {
        fill: #362e2a;
      }

      .z {
        fill: #ad7f68;
      }

      .aa {
        fill: #a3826b;
      }

      .ab, .ac {
        stroke: #fff;
      }

      .ab {
        stroke-width: 0.8px;
      }

      .ac, .ad, .ae, .ag, .ah, .aj {
        stroke-width: 1.61px;
      }

      .ad {
        fill: #ed1c24;
      }

      .ae {
        fill: #662e0e;
        stroke: #70513e;
      }

      .af, .ag {
        fill: #3d3330;
      }

      .ag {
        stroke: url(#c);
      }

      .ah {
        stroke: url(#d);
      }

      .ai {
        stroke-width: 0.83px;
        stroke: url(#e);
      }

      .aj {
        stroke: url(#f);
      }

      .ak {
        stroke-width: 1.05px;
        stroke: url(#g);
      }

      .al {
        stroke-width: 1.37px;
        stroke: url(#h);
      }

      .am {
        stroke-width: 1.36px;
        stroke: url(#i);
      }

      .an {
        fill: #5e4233;
      }

      .ao {
        fill: #f2f2f2;
      }
    </style>
    <clipPath id="a" transform="translate(0 -5.29)">
      <circle class="a" cx="764.71" cy="740" r="740"/>
    </clipPath>
    <linearGradient id="b" x1="-1405.29" y1="-551.5" x2="107.69" y2="-551.5" gradientTransform="translate(1430.01 1313.99)" gradientUnits="userSpaceOnUse">
      <stop offset="0" stop-color="#ff7bac"/>
      <stop offset="0.28" stop-color="#ff931e"/>
      <stop offset="0.49" stop-color="#f15a24"/>
      <stop offset="0.73" stop-color="#fbb03b"/>
      <stop offset="1" stop-color="#ff7bac"/>
    </linearGradient>
    <linearGradient id="c" data-name="Carbon 01" x1="524.74" y1="1250.38" x2="840.97" y2="1250.38" gradientUnits="userSpaceOnUse">
      <stop offset="0" stop-color="#85868c"/>
      <stop offset="0.34" stop-color="#c1c1c2"/>
      <stop offset="0.69" stop-color="#5c5c63"/>
      <stop offset="1" stop-color="#2f2f33"/>
    </linearGradient>
    <linearGradient id="d" data-name="Chrome 02" x1="734.59" y1="1278.04" x2="762.95" y2="1278.04" gradientUnits="userSpaceOnUse">
      <stop offset="0.07" stop-color="#66605c"/>
      <stop offset="0.09" stop-color="#29241e"/>
      <stop offset="0.09" stop-color="#29241e"/>
      <stop offset="0.11" stop-color="#29241e"/>
      <stop offset="0.11" stop-color="#39342e"/>
      <stop offset="0.11" stop-color="#68635e"/>
      <stop offset="0.11" stop-color="#908c87"/>
      <stop offset="0.12" stop-color="#b1ada8"/>
      <stop offset="0.12" stop-color="#cac7c2"/>
      <stop offset="0.13" stop-color="#ddd9d4"/>
      <stop offset="0.13" stop-color="#e7e4df"/>
      <stop offset="0.14" stop-color="#ebe8e3"/>
      <stop offset="0.16" stop-color="#ebe8e3"/>
      <stop offset="0.23" stop-color="#a49b90"/>
      <stop offset="0.24" stop-color="#a2998e"/>
      <stop offset="0.24" stop-color="#9c9388"/>
      <stop offset="0.25" stop-color="#999084"/>
      <stop offset="0.25" stop-color="#999084"/>
      <stop offset="0.26" stop-color="#999084"/>
      <stop offset="0.26" stop-color="#968e82"/>
      <stop offset="0.27" stop-color="#8b8379"/>
      <stop offset="0.29" stop-color="#847d74"/>
      <stop offset="0.33" stop-color="#827b73"/>
      <stop offset="0.39" stop-color="#827b73"/>
      <stop offset="0.4" stop-color="#827b73"/>
      <stop offset="0.42" stop-color="#817c75"/>
      <stop offset="0.52" stop-color="#918d87"/>
      <stop offset="0.52" stop-color="#8e8a84"/>
      <stop offset="0.57" stop-color="#7c7671"/>
      <stop offset="0.71" stop-color="#7d7772"/>
      <stop offset="0.74" stop-color="#2b2924"/>
      <stop offset="0.8" stop-color="#2b2924"/>
      <stop offset="0.84" stop-color="#fdfcf9"/>
      <stop offset="0.85" stop-color="#fdfcf9"/>
      <stop offset="0.89" stop-color="#b7aea5"/>
      <stop offset="0.91" stop-color="#817974"/>
      <stop offset="1" stop-color="#817974"/>
    </linearGradient>
    <linearGradient id="e" x1="1134.68" y1="1416.3" x2="1142.74" y2="1416.3" xlink:href="#d"/>
    <linearGradient id="f" x1="784.51" y1="1016.25" x2="812.87" y2="1016.25" xlink:href="#d"/>
    <linearGradient id="g" x1="1034.23" y1="1032.92" x2="1051.98" y2="1032.92" xlink:href="#d"/>
    <linearGradient id="h" x1="793.57" y1="868.5" x2="817.78" y2="868.5" xlink:href="#d"/>
    <linearGradient id="i" x1="939.54" y1="1443.27" x2="965.17" y2="1443.27" xlink:href="#d"/>
  </defs>
  <title>Asset 2</title>
  <g class="b">
    <rect class="c" x="24.73" y="-18.01" width="1512.98" height="1561" transform="translate(1543.7 -24.01) rotate(90)"/>
    <path class="d" d="M825.18,913.86a1,1,0,0,0,.53.66c4.63,2.24,44,20.57,57.47,20.67,6.68,0,18.76-3,21-4.22S917,923.75,919,920.14s16.52-39.73,11.29-59.49c-1.55-5.87-15-26.79-22.48-31.86-3.19-2.16-10.16-5.57-10-4.62,1.69,12.78,11.9,66.11,2,71.69-11.44,6.42-41.94,6.62-63.41-8.83C816.18,872.53,824.13,909.27,825.18,913.86Z" transform="translate(0 -5.29)"/>
    <path class="e" d="M901.19,828.07a7.84,7.84,0,0,0-1.05-2.24C899.89,825.54,900.27,826.33,901.19,828.07Z" transform="translate(0 -5.29)"/>
    <path class="e" d="M1119.32,1470.08l-30-285.74-21.16-2.41c-.45-4.25-.83-7.94-1.12-11-1.79-19-19.91-61.58-43.58-110.58.51-.63.55-2.37,0-5.4C1016.32,1012,931,851.91,931,851.91l-2.86,25.59c-13.68-25.08-23.75-43.27-27-49.43,3.85,11.28,8.24,56.09,4.56,62-4,6.42-10.43,8.83-20.06,10.43s-19.26,0-28.9-2.4-12-5.62-12-5.62-15,24.61-21.4,30.5c-4.89,4.48-1.71,46.16.55,69.83h-2.09l-2.41,55.91,57.79,132.44,1-.71c19.74,57.72,47,138.1,47.31,148.66.54,16.59,50.84,113.44,50.84,117.18s15.51,119.86,15.51,122,119.33-.8,119.33-.8c.28-9.68-4.49-55-11-112Z" transform="translate(0 -5.29)"/>
    <path class="f" d="M845.56,893.45c2.81.8,30.9,10.43,40.73,7.63s18.66-8.43,19.06-12S900.6,830,897.8,825.16s25.41,37,26,41,5.62,57.59-20.46,65.82-65.82-5.82-77.66-17.46,18.46-22.07,18.46-22.07Z" transform="translate(0 -5.29)"/>
    <path class="g" d="M964.68,1136.72s22.48-55.65-20.33-93.11-70.63,8.56-70.63,8.56-16.59,53.51,45.48,91.5c0,0-23,29.43-23.54,41.2,0,0-19-62.33-38.53-62.94,0,0,16.59,64,19.26,77.39s27.29,51.37,27.29,51.37l21.94-31s34.25,29.43,36.39,33.18-3.75-47.09-7.5-53-10.7-34.25,9.1-42.81,30,4.28,30,4.28l15,18.73s0-2.14,4.81,1.6,21.41,30.5,22.48,36.39,4.28,2.67,4.28,2.67-13.38-40.66-23-49.76S985,1138.32,964.68,1136.72Z" transform="translate(0 -5.29)"/>
    <path class="g" d="M1010.7,1218.58s8,0,12.84,16.59,10.17,57.26,4.82,58.33-12.31-.54-22.48-35.85C1005.88,1257.65,1000,1220.72,1010.7,1218.58Z" transform="translate(0 -5.29)"/>
    <path class="g" d="M1039.59,1224.47s-12.84,0-3.21,36.92c0,0,0,9.1,3.21,10.17S1051.37,1268.35,1039.59,1224.47Z" transform="translate(0 -5.29)"/>
    <path class="h" d="M983.86,1506.46c.5-2.12,4.95-2.86,6.85-1.79,9.06,5.1,29.64,14.65,37.85,14,10.62-.8,14.93-3.55,18.06-5.42s16.15-12.72,17.71-16.44,18.58-25,19.21-31.13,6.56-28.76,4.06-34.36,10,5.6,11.55,8.79,10,44.48,9.69,47.41,2.49,37.29,3.12,43.15,4.06,30.1,2.81,33.56c-1.13,3.15-111.35,1.67-131.48,1.38a3.31,3.31,0,0,1-3.25-3.19l-1.41-39.21a3.31,3.31,0,0,1,.53-1.91C980.61,1519.09,982.44,1512.45,983.86,1506.46Z" transform="translate(0 -5.29)"/>
    <path class="i" d="M1089.76,1435.83s-11.24,41.74-18.86,51.77-14.56,23.52-28.21,29.94-40.63-4.66-40.63-4.66-2.79-.4-22.86-8.22c-13.38-5.21-18-62-19.63-99.28,3.36-.47,2.34.79,4.75-1.42,5.75,14.28,17.58,26.83,25.91,31.47,16.86,9.42,30.1,5.22,30.1,5.22a70.32,70.32,0,0,0,6.82-12.65c3.21-7.61,11-24.28,8.83-28.29l-.4-1-10.43-1.82s-2.41,23.68-11.24,28.9-15.25.4-17.26-.81-9.84-13.43-10.83-15.84-14.26-38.73-14.85-43.34-3.42-16.86-4.22-20.49-21.06-52-21.06-52.55-4,2.66-5.69,2.33c-5.09-1,4.48-10.57,4.48-10.57s8.9,4.08,9.36,6.09-1.73,1.81-4,1l-2.18-.79c.34,1,11.38,31.87,13.5,35.3s11.77,21.93,13.37,24.21,5.75,10.71,13.12,15.92c0,0,5.61,6,10.69,9.09s12.18,8.43,22.47,11.51,24.88,3.21,26.09,2.68,13.64-6.69,18.46-14.32c4.7-7.45,22.52-49,23.32-50.9-.26,1.28-4.53,21.83-7.59,26.82-3.18,5.16-6.23,18.74-8.77,22.48s-12.84,15.52-17.12,18.18S1083.74,1415.76,1089.76,1435.83Z" transform="translate(0 -5.29)"/>
    <path class="j" d="M1076.82,1516.8s-4.62,6.12-3.82,13.84,3.11,32.31,3.92,33.71,10.13,3,12.14.7,1.6-1.7,1.6-6.42S1085.24,1510.48,1076.82,1516.8Z" transform="translate(0 -5.29)"/>
    <path class="j" d="M1090.26,1480.08s-2.91,3.21-2.11,17,3.52,38.93,6.73,42.24,4.61-3.91,4.61-3.91S1098.19,1474.26,1090.26,1480.08Z" transform="translate(0 -5.29)"/>
    <path class="h" d="M973,1357.44s38.25,40.13,37.72,50.83-4.55,14.18-6.69,13.92-14.18-.81-17.66-11-16.58-47.89-15-50.84Z" transform="translate(0 -5.29)"/>
    <path d="M1042.4,1274.1s0,4.82,2.81,4.82a14.66,14.66,0,0,0,5.92-1.71q3.82-2.48,7.58-5.07c3.87-2.67,7.34-5.79,11.54-7.91,1.8-.9,3.62-2.16,4.22-4.08a5.22,5.22,0,0,1,.29-.87c.73-1.42,3.59-2.57,5-3.23a10.31,10.31,0,0,0,2.9-1.92c2.2-2.1,1.8-.6,1.8-.6S1039.39,1295.07,1042.4,1274.1Z" transform="translate(0 -5.29)"/>
    <ellipse cx="1093.37" cy="1272.22" rx="14.85" ry="31.1"/>
    <path class="k" d="M941.13,1359.38a15,15,0,0,0-.81-4.34c-2.92-8.72-20-59.38-41.52-117,.57.92.87,1.42.87,1.42S842.15,1059.93,824,1048.69c0,0,0,8.76.12,20l-.12-.19a16,16,0,0,0-28.65,3.7c-3.6,11-6.22,25.11-3.93,40.18,5.11,33.71,99.25,217.51,126.88,241.59C939,1372,941.28,1364.35,941.13,1359.38Z" transform="translate(0 -5.29)"/>
    <ellipse class="k" cx="812.65" cy="1057.72" rx="19.06" ry="16.45"/>
    <g>
      <path class="l" d="M992.62,1565.76l-681.29,1.7.1-67c26.71,36.7,58,57.79,91.42,57.79,82.25,0,151.47-127.78,171.91-301.37,58.94-51,97.63-136.79,97.63-234,0-143.33-84.13-261.8-193.31-280.69,11.51-2.73,25.19-6.55,29.84-10.26,0,0,34.92-17.53,48.56-18.06a101.91,101.91,0,0,1,12,.27c7.36.53,26.62.53,26.62.53l56.58-42.94s72.07,64.08,123.14,115.53a1.62,1.62,0,0,1,.52-.85c2.13-1.81,9,2.78,15.28,10.16,5.31,6.3,8.54,12.7,8.08,15.59,11.6,12.65,20.29,23.28,24,30.13,0,0,5.16,4.42,4.76,6.82s16.78,12.72,18.78,31.18-25.55,43.07-25.55,43.07.59,2,.59,8.83,4,102.73,1,112.57-1.47,75.37-.4,89.82,39.33,161.6,106.75,220.19,62.61,193.44,62.61,209.49A3.35,3.35,0,0,0,992.62,1565.76Z" transform="translate(0 -5.29)"/>
      <path class="l" d="M992.63,1565.76c7.27,13.81,116.79,3.31,116.79,3.31s-.06-1.26-.17-3.6Z" transform="translate(0 -5.29)"/>
    </g>
    <path class="l" d="M1131.09,1209.49c-4-24.08-37.72-139.66-46.55-155.71s-16.85-18.46-16.85-18.46c-.81-11.24,4-64.22,2.4-80.27s-11.23-28.89-12-38.52-19.26-31.31-19.26-31.31l15.25-.8c-13-19.56-126.06-84.2-148-96.64-.23-.13-.46-.28-.7-.39l-3-1.69-.09.85a6,6,0,0,0-.61,0c-7,0-12.77,9.26-12.77,20.68s5.72,20.69,12.77,20.69a8.08,8.08,0,0,0,1.39-.13c80.6,65.31,173.67,399.87,183.12,423.48,9,22.51,21.51,280.68,23.1,314.25l58.23-.15C1167.48,1542.85,1135.11,1233.57,1131.09,1209.49Z" transform="translate(0 -5.29)"/>
    <ellipse class="m" cx="653.13" cy="665.77" rx="34.91" ry="69.7"/>
    <path class="n" d="M645.23,663.16c-3.09-2.31-8.56-118.79-1.07-134.84S704.09,463,722.29,450.2s107-96.32,142.33-113.44,110.23-21.41,137-10.71,42.81,32.11,48.16,41.74a33.57,33.57,0,0,1,3.88,19.4s7.63,12,6.82,15.65-6.82,26.09-13.24,31.3l-.4,4s18.46,14.44,20.47,20.46,2,18.46,0,21.27-12,11.24-14.85,11.64-9.64,18.06-12.85,18.46,7.63,69.43,7.63,69.43-19.26,90.3-52.17,100.33c0,0-77.46,53.37-82.67,68.22,0,0-8,28.9-8.83,36.12s-10.44,32.51-7.63,36.52,15.65,65.42,5.22,73-24.08,8-31.7,6.42-21.68-6-23.68-7.22-2-19.27-4.82-24.88-12.84-15.66-16.45-18.87-24.88-43.74-42.94-56.58S659,673.46,645.23,663.16Z" transform="translate(0 -5.29)"/>
    <path class="o" d="M998.86,488.32c-.62-.37-2.81-11.64,10.43-15.45s34.92,4.21,34.92,4.21,4.21,2.21,4,4-5.62,7.82-8.83,7.42-17.25-2.61-26.28.6S1000.87,489.52,998.86,488.32Z" transform="translate(0 -5.29)"/>
    <path class="p" d="M1000.8,509.06c-1.89.13-43.34,1.07-48.43,15.25s-25.14,53.24-24.88,63.94-12.84,28.89,2.68,51.37,114,69,127.35,67.15,31.84-2.67,31.3-9.36-14.18-8.56-26.22-33.18-14.18-28.36-15-49.49-.8-15.52-2.94-26.49S1079.73,503.44,1000.8,509.06Z" transform="translate(0 -5.29)"/>
    <path class="q" d="M1030.56,550.83s2,9.2-2.74,9.73c0,0-40.68-15.38-58.22-11.09S989.33,533,1030.56,550.83Z" transform="translate(0 -5.29)"/>
    <path class="d" d="M1027,550.76s3.48,4.48.53,7.39c0,0-32.5-14.53-50.56-10.08S995.38,534.21,1027,550.76Z" transform="translate(0 -5.29)"/>
    <path class="r" d="M991.16,548.25c-6.51,0-11.47.35-15.7,1.4a1.29,1.29,0,0,0,.13-.65c39.22-11,55.44,6.88,55.44,6.88s7.76-3.75-2.14-12.31-22.47-8.56-22.47-8.56-19.8-1.34-29.16,3.21-27.78,21.1-26.76,20.6c.4-.2.78-.36,1.17-.55-.68.67-1.07,1.08-1.07,1.08,1.53.61,6.14-.37,11-2l-.41.36c.36-.21.7-.39,1.05-.58a67.53,67.53,0,0,0,6.78-2.78c4-1,8-.88,14.93-.88,19.41,0,36.19,2.48,43.92,12.82,1,1,7.3,5,7.3,5C1032.62,558.55,1013.57,548.25,991.16,548.25Z" transform="translate(0 -5.29)"/>
    <path class="s" d="M605.9,562.7c-3.58-1.44-45.48-30-46.55-107.56s1.61-173.9-1.6-179.25c0,0-29.23-19.26-30.24-29.9s20.07-28.09,23.08-27.49,13.24-1.6,18.86-3.61,35.92-12.24,51.37-13.85,29.3-11.23,37.52-7.42,96.32,2,96.32,2,19.26,1.6,30,2.14,200.13-32.64,254.71,137c0,0,.06-.27,5.08,6.15s12.84,26.89,11.44,44.55c0,0-7.23-71.84-117.59-61.6-2.21.4-92.5,11.64-151.09,72.44,0,0-72.44,74.44-77.46,75.24s-46.35,22.69-55,42-7.09,49.22-10.3,52.43S616.61,567,605.9,562.7Z" transform="translate(0 -5.29)"/>
    <path class="o" d="M532.73,625.17s43.74-45.15,57.79-40.53,9.23,10,9.23,10-45,17.06-50.16,26.29S535.54,631.79,532.73,625.17Z" transform="translate(0 -5.29)"/>
    <path class="t" d="M789.57,392c4-.4,104.75-18.46,104.75-18.46s8.43.41,10.83,13.25,0,33.31,11.64,39.73,63.06,27.29,73.44,26.89,29-14.72,32.91-33.31c0,0,6-6.56,15.92,10,0,0,3.74-17.39,5.89-19s11-3.74,18.19.54,34,13.91,35.31,29.16-1.33,44.95-6.42,49.5c0,0-4.81,6.95-25.15-8.56l-1-.63-4.44,5.78s18.52,9.29,20.66,9.83,10.71,2.67,13.11-1.34,8.56-24.35,9.37-27.29,1.6-5.35,1.6-5.35,5.62-16,3-20.6-29.7-38.26-54.85-37.46c0,0-26.22,6.16-48.43-24.08,0,0-54.31-32.64-95.51-31.57l-80.8,13.11-17.92,10.7Z" transform="translate(0 -5.29)"/>
    <path class="u" d="M924,361.64s60.47-5.62,88.29,38.52c0,0,9.37,36.39-13.91,45.22,0,0-25.95,6.42-68.76-20.6C929.63,424.78,903.15,409.53,924,361.64Z" transform="translate(0 -5.29)"/>
    <path class="u" d="M1047,412.69c2.28-.54,26.16-5.43,49.31,23.33,0,0,7.49,38.79-5.61,55.11,0,0-7,4.28-23.55-9.1,0,0,5.62-22.74-3.48-28.62,0,0-19.53-16.32-22.2-20.61s-1.89-13,5.21-19.93A.72.72,0,0,1,1047,412.69Z" transform="translate(0 -5.29)"/>
    <path class="v" d="M715.33,569c-1.89-13.88,4.27,15.8,8.47,19.24,8,6.58,18,21.53,36.68,35.43,25,18.68,163.5,40,194,41.64,3.5.19-85.25,0-96.31,0-23.84,0-70-1.32-112.07-30.2C741,631.59,722,617.85,715.33,569Z" transform="translate(0 -5.29)"/>
    <path class="w" d="M709.8,882.74c-1.56-8.92-8.68-45.18-17.75-50.49a30.32,30.32,0,0,0-9.84-3.51,4.84,4.84,0,0,0,2.5-1.85c3.54-5,.28-16.86.92-19.12.81-2.81-14.85-9.63-14.85-9.63a18.29,18.29,0,0,0-3.09-.38c-1.12-4-5.6-7-11-7.23,0-.12.06-.26.08-.39l.41,0c3.61,0,8-7.22,9.23-16.45s-14.45-16.46-14.45-16.46.7,8.15-3.42,10c-.52-12.67-4.49-32.12-2.2-51.57a2.31,2.31,0,0,0-1.2-.85,25.46,25.46,0,0,0,2.81-6.51c1.6-7.36-11.24-10-11.24-10-.84.16-1.63.33-2.42.51a17.1,17.1,0,0,0,4-6.13c1.82-4.86-1-10.92-3.81-15.26a17,17,0,0,0-5.93-26.79c8.38-11.86,15.55-25.36,11.34-32.59a24.12,24.12,0,0,0-3.51-2.08c5-5.07,9.13-21.6,9.13-21.6s3.61-59.4-2.81-63c0,0-29.29,11.24-32.51,32.11s-19.26,16.85-19.26,16.85a26,26,0,0,0,.45,2.75c-4.73,2.45-18.37,11.08-14.49,27.48A20.24,20.24,0,0,0,570.45,625c0,.08,0,.15,0,.23-11-1.42-19.47,2.61-20.48,8-1.61,8.56,1.07,15.51,7,17.65,3.84,1.4,6.54,4.15,11.06,5,.08.24.16.48.26.71-5.77,1.42-10.54,3.64-11.32,7.13-2.42,10.9,15,17.12,15,17.12l2.2-.84a7.77,7.77,0,0,0-.06,1,8.65,8.65,0,0,0,.86,3.73,4.71,4.71,0,0,0-.33.42s-9.63,9.1-2.67,19.26c5.72,8.37,13.25,16.72,19,19.72,0,.4,0,.81,0,1.22a18.92,18.92,0,0,0,1.64,8.08c-2.77,3.5-5.53,8.27-4.45,12.59,2,8,4.42,20.46,10,20.86,2.34.17,6.28-1,10.09-2.87-.92,5-1.48,9.43-.86,10.5a3.81,3.81,0,0,0,2,1.11c0,4.67,1.46,8.76,3.63,11.14-.15.72-.32,1.43-.43,2.2-1.62,11.35-.68,10.51.91,8.25a5.34,5.34,0,0,0-.1,1c0,4.21,4.94,7.62,11,7.62a14.26,14.26,0,0,0,6.88-1.67,13.94,13.94,0,0,1,.14,2.07c0,12,6.43,1.21,16.86,14.05S655.13,815,662,829l.65,1.29a4.34,4.34,0,0,0-1.85,1.52c-2,3.61-1.6,33.31,4.82,41.73s29.69,38.53,28.09,44.55-1.61,14-5.62,25.28a27.44,27.44,0,0,0,.8,20.47l3.21-12,.81,17.66s5.21-20.47,7.22-27.69-.8,22.07-.8,22.07,1.2,28.9,10-12C717.59,913.44,710.69,886,709.8,882.74ZM593.65,691.53q-.61-.64-1.2-1.17l.35-.14C593.08,690.66,593.35,691.11,593.65,691.53Zm13.67,33.3a5.48,5.48,0,0,0,.62-2.71c.37,0,.75-.11,1.14-.19a37.67,37.67,0,0,0,.4,3.92A14.1,14.1,0,0,0,607.32,724.83ZM634,764.19c-1.91-6.63-6-13.65-14.85-16.74.06-.39.11-.78.16-1.16a7.56,7.56,0,0,0,4.46-6.66,23.41,23.41,0,0,1,3.65.32c9.23,1.6,5.22-6,6-8a11.75,11.75,0,0,1,1-1.6,16.32,16.32,0,0,0,3-1c-3.75,8.27-7.51,17.88-6.66,21.55,1.36,5.93,5.44,8.36,5.62,12.6C635.78,763.67,635,763.89,634,764.19Z" transform="translate(0 -5.29)"/>
    <path class="x" d="M712.58,867.33c-.66-3.57,16.48-4.76-5.27-5.36-8.17-.22-17-.11-24.82.12,7.8-1,16.54-2.85,24.82-4.29,17.14-3,0-20.25-1.32-15.49-.86,3.11-13.45,7-30.68,7.14,12.53-1.35,24.93-6.07,27.39-8.92,4.61-5.37,2-11.92-11.21-4.17s-45.72.67-42.84,5.36c2.06,3.34,5.4,5.46,9.43,6.69a118.74,118.74,0,0,1-13.38-2.52s9.23,10.12,17.79,14.89a17.39,17.39,0,0,0,6.68,1.82c-6,.3-10,.56-10,.56,8.57,5.36-1.32,13.7,6.59,11.32,2.89-.87,4-.71,5.13-.32-2,4.08-6.26,8.08,2.12,8.66,0,0-3.3,5.36,5.93,10.13s21.09-4.17,36.25-7.15l-2.64-6s-2.59.13-6.48.21l1.21-.8C713.9,873.29,725.76,866.74,712.58,867.33ZM697,871.87c-3.55,1.61-6.87,2.85-11.47,2C689.82,873,693.66,872.37,697,871.87Z" transform="translate(0 -5.29)"/>
    <path class="w" d="M933,781a145.21,145.21,0,0,0-14.58-6.34c6,1.58,11.68,3,11.68,3,6-28.66-14.09-34.88-15.66-35.33,0,0-8.27,13.56-8.27,14.22s-1.34,13.33-1.56,14c-.07.2,2.17.91,5.34,1.81a20.53,20.53,0,0,0-3.11-.26c-4.47,0-4.92,17.55-4.92,17.55s41.65,21.76,43.38,20.88C945.32,810.55,947.56,788.12,933,781Z" transform="translate(0 -5.29)"/>
    <path class="w" d="M1043.87,875.59s.54.27,5.09-6.42,6.42-4.28,5.35-12.31,2.41-8.56-1.34-11-10.43-10.7-4.55-6.68,10.44,3.21,10.44,11.77,3.48,16.32-4.28,21.67-6.69,8.29-1.07,11.24,3.21-1.61,8.29,4,6.69,6.42,3.21,9.36-2.94,16.86-2.94,16.86,8,0,8.83,9.63,3.21,32.91-5.62,14.45c0,0,8.56,5.75-2.68-9.9s-1.2-22.21-3.07-28.9-5.89-13.37-8.57-14S1043.87,875.59,1043.87,875.59Z" transform="translate(0 -5.29)"/>
    <path class="y" d="M675.06,1022.88c0-156.48-100.25-283.33-223.93-283.33a179.56,179.56,0,0,0-36.41,3.74,80.42,80.42,0,0,0-9.2-.53c-31.45,0-61,18.69-86.62,51.46-55.6,51.55-91.71,134.76-91.71,228.66a359,359,0,0,0,3.51,50.18c-2.11,25.07-3.22,51-3.22,77.43,0,225.19,79.71,407.74,178,407.74,82.26,0,151.48-127.77,171.91-301.38C636.38,1205.82,675.06,1120.07,675.06,1022.88Z" transform="translate(0 -5.29)"/>
    <path class="l" d="M672.39,1022.87c0,97.2-38.69,183-97.63,234-20.44,173.59-89.66,301.37-171.91,301.37-33.44,0-64.71-21.09-91.42-57.79-51.9-71.26-86.62-201.31-86.62-350,0-26.48,1.11-52.36,3.21-77.43a358.91,358.91,0,0,1-3.5-50.19c0-91.7,34.45-173.24,87.87-225q1.91-1.87,3.84-3.66,6.24-8,12.78-14.82c22.49-23.51,47.5-36.64,73.84-36.64a78.45,78.45,0,0,1,9.2.53,178.75,178.75,0,0,1,67-1.11C588.26,761.07,672.39,879.54,672.39,1022.87Z" transform="translate(0 -5.29)"/>
    <path class="n" d="M652.89,508.89c-.57-.18-.38.54.81,4.31,2.58,8.2,25.35,34.46,35.41,38.39,11.86,4.64,41.69-.39,29.83-32.27l-4.51-13.91s-29.07-27.61-44.32-21.24S653,505.78,653,505.78Z" transform="translate(0 -5.29)"/>
    <path class="z" d="M668,498.91a.63.63,0,0,0,.32,1.09c5.23.95,25.35,4.92,30.78,10.42,6.26,6.33,8.84-4.06,8.84-4.06s-.19-8.36-4.24-11.91-11-4.81-10.07-8.86-3.55-4-3.9-3.69C688.66,482.94,672.3,494.87,668,498.91Z" transform="translate(0 -5.29)"/>
    <path class="aa" d="M722.73,532.39c-15.44,56.93-53.82,8.1-69.43-15.26a2.27,2.27,0,0,0,.32-.57c43,58.62,62,31,68.4,15.46A4.34,4.34,0,0,0,722.73,532.39Z" transform="translate(0 -5.29)"/>
    <path class="j" d="M762.89,310.94s20.26-13.85,22.47-17.26-23.68-5.42-29.7,4.82C755.66,298.5,766.7,302.51,762.89,310.94Z" transform="translate(0 -5.29)"/>
    <path class="j" d="M854.79,253.82s21.67-42,46.35-17.49" transform="translate(0 -5.29)"/>
    <path class="j" d="M861.81,219c.8-20.72-29.7-16.57-32.71-5.8" transform="translate(0 -5.29)"/>
    <path class="j" d="M896.42,281.39s26.74-6.07,31.26-.25-1.71,12.29-2.16,12.39-13.29,5.57-18.51,2.06-4.47-7.23-4.32-7.73S899.28,281.44,896.42,281.39Z" transform="translate(0 -5.29)"/>
    <path class="j" d="M989.6,279.54s1.74-2,5.45-.27,19.39,13,22.71,23.34c0,0-14.62-10-18.87-10.2S987.46,282.48,989.6,279.54Z" transform="translate(0 -5.29)"/>
    <path class="j" d="M968.16,232.41s8,11.24,10.43,13.11,12,7,13.65,7.23S983.94,238.57,968.16,232.41Z" transform="translate(0 -5.29)"/>
    <path class="j" d="M774.66,344.85c-.6-.39,18.53-32.84,46-19.6,0,0-24.75,12.44-29,17.19A13.58,13.58,0,0,1,774.66,344.85Z" transform="translate(0 -5.29)"/>
    <path class="j" d="M691.65,410.67s-4.41,6.82,7.63,9,16.65,1.6,18.46-6.83,5.42-12.84-3.81-13.44S697.1,403.37,691.65,410.67Z" transform="translate(0 -5.29)"/>
    <path class="j" d="M680.82,390.8c-7.63,5.22-9.23,16.86-15.65,12s-4-7.22,2-8.83S680.82,390.8,680.82,390.8Z" transform="translate(0 -5.29)"/>
    <path class="j" d="M686,371.94c-8.42,5.62-10.83,7.62-6.42,7.62s6,1.21,10.44-1.6,10.83-4.42,6-6.82S686,371.94,686,371.94Z" transform="translate(0 -5.29)"/>
    <path class="j" d="M687.64,352.68c-9.23,3.61-12.44,5.61-9.63,8.42s2.81,4.42,9.23,2,8.43-2.81,10.83-6.42S687.64,352.68,687.64,352.68Z" transform="translate(0 -5.29)"/>
    <path class="j" d="M700.48,336.62c-8.83,5.62-14.45,7.23-5.22,7.63s15.66-2.41,15.66-6.82S700.48,336.62,700.48,336.62Z" transform="translate(0 -5.29)"/>
    <path class="j" d="M706.5,318.56c-6.42,6.42-12,10-4,8.43s6-3.21,9.63-6.82S706.5,318.56,706.5,318.56Z" transform="translate(0 -5.29)"/>
    <path class="j" d="M717.74,301.71c-6.42,2-12,6.42-9.63,7.62s4.81,3.21,8.42,1.61,5.62-1.61,5.62-4S717.74,301.71,717.74,301.71Z" transform="translate(0 -5.29)"/>
    <path class="j" d="M721,285.25c-3.21.81-13.25,2.81-10,7.23s-1.21,9.23,6.82,4.81,10-7.62,10.43-9.23S721,285.25,721,285.25Z" transform="translate(0 -5.29)"/>
    <path class="j" d="M737.4,269.6c-10.43,2-21.27,5.22-14,6.42s16.85-4,16.85-4Z" transform="translate(0 -5.29)"/>
    <path class="j" d="M743,256.76c-9.63,2-15.65,5.22-10.43,6.82s13.64.81,15.25-.4S743,256.76,743,256.76Z" transform="translate(0 -5.29)"/>
    <path class="j" d="M745.43,243.92c-5.22,2.81-6.42,11.64,1.2,10s18.06-6.42,17.26-8.43S745.43,243.92,745.43,243.92Z" transform="translate(0 -5.29)"/>
    <path class="j" d="M761.88,230.67c-10.83.41-28.09,2-18.06,4.82s17.66,4.42,20.07,3.21S761.88,230.67,761.88,230.67Z" transform="translate(0 -5.29)"/>
    <path class="j" d="M777.13,220.64c-9.63,0-17.66,4.42-8.83,4.82s8.43,1.2,13.25-.4S777.13,220.64,777.13,220.64Z" transform="translate(0 -5.29)"/>
    <path class="j" d="M787.57,208.2c-1.61.4-27.29.4-16.06,4s20.87,2,22.88,1.21S787.57,208.2,787.57,208.2Z" transform="translate(0 -5.29)"/>
    <path class="j" d="M792.78,200.58c-2.81.8-6.42,6,.81,6.42S792.78,200.58,792.78,200.58Z" transform="translate(0 -5.29)"/>
    <path class="j" d="M697.67,193.75c1.56.57-34.51,4.82-27.69,24.48s37.32-14.84,37.32-14.84-20.06,38.92-36.11,24.88S673.59,184.92,697.67,193.75Z" transform="translate(0 -5.29)"/>
    <path class="ab" d="M703.69,211.81s18.46-2.81,15.25,8-62.2,35.72-81.06,68.22,28.49,4.42,28.49,4.42-25.68,10-26.89,4,22.07-29.3,31.3-36.12S754.86,208.6,703.69,211.81Z" transform="translate(0 -5.29)"/>
    <g>
      <path class="j" d="M673.33,327.66c.13,1.06,3.47-19.8-16.59-19s-38.26,32.11-38.26,32.11-6.69,12.84,5.35,18.19,16-.8,19.8,1.61a108.34,108.34,0,0,1,9.26,7.21l.64.55s-8.56-7-12.58-5.62-20.87-1.61-22.2-3.75-4-5.35-4.82-13.91S666.64,272.81,673.33,327.66Z" transform="translate(0 -5.29)"/>
      <path class="j" d="M673.35,327.66v0s0,0,0,0,0,0,0-.06l0-.12,0-.26.07-.53c0-.35.06-.7.07-1.06,0-.7,0-1.41,0-2.12a20.45,20.45,0,0,0-.66-4.18,14.12,14.12,0,0,0-4.25-7.16,14.42,14.42,0,0,0-7.67-3.25,22.57,22.57,0,0,0-8.39.46c-5.49,1.38-10.35,4.54-14.65,8.16a87.83,87.83,0,0,0-11.65,12.27q-2.62,3.33-5,6.84c-.79,1.17-1.56,2.35-2.3,3.56a15.17,15.17,0,0,0-1.59,3.88,14.23,14.23,0,0,0,0,8.3,11.18,11.18,0,0,0,5.59,6,25.41,25.41,0,0,0,8,2.59,21,21,0,0,0,8.37-.77,12.5,12.5,0,0,1,2.11-.32,4,4,0,0,1,2.07.52c1.22.74,2.35,1.6,3.48,2.45,2.25,1.72,4.43,3.52,6.58,5.37l-.13.16a37.81,37.81,0,0,0-7.53-4.73,9.22,9.22,0,0,0-4.24-1,20.43,20.43,0,0,1-2.2.42,21.13,21.13,0,0,1-2.25.06,60.4,60.4,0,0,1-8.9-1c-1.47-.26-2.94-.56-4.39-.92a23.51,23.51,0,0,1-4.27-1.42,3.29,3.29,0,0,1-1-.68c-.27-.33-.42-.63-.64-.94-.41-.62-.81-1.26-1.17-1.92a21.28,21.28,0,0,1-1.78-4.13,31.27,31.27,0,0,1-1-4.38q-.18-1.11-.3-2.22a4.46,4.46,0,0,1,0-1.16,6.24,6.24,0,0,1,.25-1.12,23,23,0,0,1,1.93-4.07c.75-1.29,1.57-2.55,2.42-3.78,1.7-2.45,3.54-4.81,5.46-7.09a102.22,102.22,0,0,1,12.64-12.67,67,67,0,0,1,7.24-5.28,38,38,0,0,1,8.06-3.9,16.68,16.68,0,0,1,8.85-.71,12.34,12.34,0,0,1,7.27,5,26,26,0,0,1,3.75,8.08A58.2,58.2,0,0,1,673.35,327.66Zm0,0a56.74,56.74,0,0,0-1.76-8.75,25.83,25.83,0,0,0-3.78-8,12.19,12.19,0,0,0-7.19-4.86,16.37,16.37,0,0,0-8.73.77,37.11,37.11,0,0,0-8,3.92,68.72,68.72,0,0,0-7.17,5.3,105.68,105.68,0,0,0-12.58,12.63c-1.92,2.27-3.75,4.62-5.45,7.06-.84,1.22-1.65,2.47-2.4,3.75a22.15,22.15,0,0,0-1.9,4,4.13,4.13,0,0,0-.2,2.12c.07.74.17,1.47.29,2.2a31.63,31.63,0,0,0,1,4.33,21.17,21.17,0,0,0,1.75,4.06c.35.65.75,1.28,1.16,1.9.2.29.41.66.61.91a3,3,0,0,0,.86.58A22.91,22.91,0,0,0,624,361c1.44.37,2.9.68,4.36.94a61.16,61.16,0,0,0,8.85,1c.74,0,1.48,0,2.22-.05a20.41,20.41,0,0,0,2.19-.41,9.4,9.4,0,0,1,4.37,1,38.18,38.18,0,0,1,7.56,4.79l-.13.15c-2.14-1.84-4.32-3.65-6.56-5.38-1.12-.85-2.25-1.71-3.45-2.45a3.8,3.8,0,0,0-2-.51,11.49,11.49,0,0,0-2.09.32,21.58,21.58,0,0,1-8.42.74,25.53,25.53,0,0,1-8.07-2.56,11.47,11.47,0,0,1-5.71-6.1,14.46,14.46,0,0,1,0-8.42,15,15,0,0,1,1.6-4c.74-1.21,1.51-2.4,2.3-3.57,1.57-2.36,3.24-4.65,5-6.88a81.61,81.61,0,0,1,11.68-12.33c4.34-3.62,9.26-6.77,14.81-8.13a22.78,22.78,0,0,1,8.47-.41,14.58,14.58,0,0,1,7.73,3.32,14.24,14.24,0,0,1,4.24,7.24,21.34,21.34,0,0,1,.65,4.2c0,.71,0,1.42,0,2.12,0,.36,0,.71-.08,1.06l-.06.53-.05.26,0,.13s0,.05,0,.07,0,0,0,0Z" transform="translate(0 -5.29)"/>
    </g>
    <path class="ac" d="M628.65,201.38c-9.88,3.12-15.25,14.85-6.83,12s4.82-.4,9.63-4.82S636.27,199,628.65,201.38Z" transform="translate(0 -5.29)"/>
    <path class="ac" d="M627.84,220.64c-2,3.21-9.63,7.63.4,3.61s18.46-5.61,15.25-8.42S627.84,220.64,627.84,220.64Z" transform="translate(0 -5.29)"/>
    <path class="ac" d="M629.85,230.27c-3.53-7.44-8,5.22-5.62,8s.8,6.82,4.82,1.2S633.46,237.9,629.85,230.27Z" transform="translate(0 -5.29)"/>
    <path class="ac" d="M632.26,245.12c-5.22,7.23-8,14.05-2.41,10.44s1.6.4,6.82-5.62,13.25-7.63,4.82-8.43S632.26,245.12,632.26,245.12Z" transform="translate(0 -5.29)"/>
    <path class="ac" d="M615,294.08c-9.23,4-20.87,6-13.24,8.43s-.4,7.63,10,2,11.24-6,10.84-8.83S615,294.08,615,294.08Z" transform="translate(0 -5.29)"/>
    <path class="ac" d="M736.6,223.45c-11.24,11.24-14.05,16.86-15.25,13.65s-.4-.41.8-8-1.6-15.25,8-10.84S736.6,223.45,736.6,223.45Z" transform="translate(0 -5.29)"/>
    <path class="ac" d="M664.76,206.6s.41-10-4.81-2-4.82,14-4.82,19.66,4,10.84,8,7.23-3.21-39.73-.4-22.88Z" transform="translate(0 -5.29)"/>
    <path class="ac" d="M598.55,370.33s-15.25,10-13.25,16.06,5.22,10.43,7.63,6S598.55,370.33,598.55,370.33Z" transform="translate(0 -5.29)"/>
    <path class="ac" d="M675.2,459.83c2.41,0,3.21,2.81,8.43-.81s10.83-2.8,9.63-9.23,5.62-16.45-5.22-5.61S675.2,459.83,675.2,459.83Z" transform="translate(0 -5.29)"/>
    <path class="ac" d="M708.11,439c-3.36-6.71-18.06,15.25-12.44,14.85S710.92,444.58,708.11,439Z" transform="translate(0 -5.29)"/>
    <path class="ac" d="M726.57,433.34s-18.87,12.44-16.46,15.25S726.57,446.58,726.57,433.34Z" transform="translate(0 -5.29)"/>
    <path class="ac" d="M640.28,443.77s16.86-1.2,16.86-10.43S643.09,432.54,640.28,443.77Z" transform="translate(0 -5.29)"/>
    <path class="ac" d="M650.32,450.2s-16.06,3.61-16.86,11.23S643.49,467.05,650.32,450.2Z" transform="translate(0 -5.29)"/>
    <path class="ac" d="M740.61,425.31s-8.83,3.21-9.23,9.64S738.61,443.37,740.61,425.31Z" transform="translate(0 -5.29)"/>
    <path class="ac" d="M600.15,460.63s2-30.5,18.86-43.34-34.51,11.64-28.49,52.17S600.15,460.63,600.15,460.63Z" transform="translate(0 -5.29)"/>
    <path class="ad" d="M809.24,325.79s-29.7,7.62-27.29,14S809.24,325.79,809.24,325.79Z" transform="translate(0 -5.29)"/>
    <path class="ad" d="M902.34,283.25s30.1-1.21,20.47,6.82S902.34,283.25,902.34,283.25Z" transform="translate(0 -5.29)"/>
    <path class="ad" d="M861.18,248.17s29.43-5.06,28.21-14.54S861.18,248.17,861.18,248.17Z" transform="translate(0 -5.29)"/>
    <path class="ad" d="M834.12,209.81s22.87-3.62,22.87,0S843,216.23,834.12,209.81Z" transform="translate(0 -5.29)"/>
    <path class="ae" d="M759.07,245.92s-13.64-2.4-14.44,2.81S759.07,245.92,759.07,245.92Z" transform="translate(0 -5.29)"/>
    <path class="ae" d="M721,287.26s-8.43,3.21-5.22,6.42S721,287.26,721,287.26Z" transform="translate(0 -5.29)"/>
    <path class="ad" d="M759.07,245.92s-16.85-2.8-14.44,2.81S759.07,245.92,759.07,245.92Z" transform="translate(0 -5.29)"/>
    <path class="ad" d="M746.63,234.29s8.83-5.22,12-1.21S746.63,234.29,746.63,234.29Z" transform="translate(0 -5.29)"/>
    <path class="ae" d="M627.84,210.21s5.62-8.83-3.61-6S627.84,210.21,627.84,210.21Z" transform="translate(0 -5.29)"/>
    <path class="ad" d="M603.76,300.5s10.44-6.42,13.25-3.61S613.8,302.91,603.76,300.5Z" transform="translate(0 -5.29)"/>
    <path class="ad" d="M596.14,373.54s-10.44,8.43-7.63,13.25S595.34,383.18,596.14,373.54Z" transform="translate(0 -5.29)"/>
    <path class="ad" d="M615.8,417.69s-35.31,36.52-22.87,55S584.1,444.18,615.8,417.69Z" transform="translate(0 -5.29)"/>
    <path class="ad" d="M713.32,402.84s-16.05,3.61-16.85,8.43S712.92,421.3,713.32,402.84Z" transform="translate(0 -5.29)"/>
    <path class="ad" d="M705.3,441.37s-10.84,3.21-7.23,6.82S705.3,441.37,705.3,441.37Z" transform="translate(0 -5.29)"/>
    <path class="ad" d="M724.16,437s-9.23,3.61-7.63,6.42S724.16,437,724.16,437Z" transform="translate(0 -5.29)"/>
    <path class="ad" d="M739,427.32s-9.23,3.61-6.42,6.42S737.4,432.14,739,427.32Z" transform="translate(0 -5.29)"/>
    <path class="ad" d="M635.07,248.33s-6-3.61-.4-4S635.07,248.33,635.07,248.33Z" transform="translate(0 -5.29)"/>
    <path class="ad" d="M629.85,204.59s-3.21-3.21-6.42,1.6S621.42,211,629.85,204.59Z" transform="translate(0 -5.29)"/>
    <path class="ad" d="M661.15,207.4s-10.43,16.85-2,19.66S661.15,207.4,661.15,207.4Z" transform="translate(0 -5.29)"/>
    <path class="ad" d="M1014.31,298.9s-12.84-19.26-17.26-14.45S1007.09,290.87,1014.31,298.9Z" transform="translate(0 -5.29)"/>
    <path class="af" d="M540.36,1276.91S530.19,1509.14,527,1513.42,655.4,1554.08,670.92,1561c0,0,146.08-36.39,152.5-42.81,0-2.67,7.49-239.72,5.88-249.35S540.36,1276.91,540.36,1276.91Z" transform="translate(0 -5.29)"/>
    <path class="ag" d="M525.64,1198.79s224.74-30.5,282.53-16.06c0,0,38.52,71.7,31,82.94s-71.7,35.32-84.54,55.65c0,0-41.2-53-215.11-20.87Z" transform="translate(0 -5.29)"/>
    <ellipse class="ah" cx="748.77" cy="1278.04" rx="13.38" ry="12.31"/>
    <ellipse class="ai" cx="1138.71" cy="1416.3" rx="3.61" ry="12.31"/>
    <ellipse class="aj" cx="798.69" cy="1016.25" rx="13.38" ry="12.31"/>
    <ellipse class="ak" cx="1043.11" cy="1032.92" rx="8.35" ry="8.51"/>
    <ellipse class="al" cx="805.67" cy="868.5" rx="11.42" ry="10.5"/>
    <ellipse class="am" cx="952.36" cy="1443.27" rx="12.14" ry="9.72"/>
    <path class="an" d="M1034.07,392.43s-12.74-6.72,6.79-6,22.62,5.24,19.53,10.35S1053.84,410,1034.07,392.43Z" transform="translate(0 -5.29)"/>
    <path class="an" d="M1002.45,359.17c-11-6.7-50-10.38-66.69-11.5l-1.39-.33c-3.83-.83-7.06-.91-7.22-.18s2.82,2,6.65,2.83a32.55,32.55,0,0,0,3.44.56c33.51,12.27,80.14,34.33,80.8,27.48C1018.77,370.52,1016.77,367.88,1002.45,359.17Z" transform="translate(0 -5.29)"/>
    <path class="l" d="M679.21,1041.34c0-120.36-65.4-217.92-146.08-217.92a99.65,99.65,0,0,0-17.9,1.63c-28.28-44.55-62.56-70.66-99.52-70.66-96.95,0-175.54,179.52-175.54,401s78.59,401,175.54,401c83.61,0,153.56-133.53,171.22-312.31C641,1212,679.21,1133.34,679.21,1041.34Z" transform="translate(0 -5.29)"/>
    <path class="ao" d="M660.22,352.81s-49.77,5.88-23.55-23S662.36,325,660.22,352.81Z" transform="translate(0 -5.29)"/>
    <path class="ad" d="M658.14,347.73s-.64-31-15.45-17.05S634.28,349.67,658.14,347.73Z" transform="translate(0 -5.29)"/>
    <path class="ad" d="M759.47,297.83c-.56,0,21.54-6.69,21.81-3.75s-14.18,10-14.18,10S768.57,298.36,759.47,297.83Z" transform="translate(0 -5.29)"/>
  </g>
</svg>
