<svg xmlns="http://www.w3.org/2000/svg" xmlns:xlink="http://www.w3.org/1999/xlink" viewBox="0 0 1005.79 1222.23">
  <defs>
    <style>
      .a {
        fill: none;
      }

      .b {
        clip-path: url(#a);
      }

      .ad, .c {
        stroke: #000;
      }

      .ab, .ac, .ad, .ae, .ag, .ah, .ai, .aj, .ak, .al, .am, .c {
        stroke-miterlimit: 10;
      }

      .c {
        stroke-width: 0.93px;
        fill: url(#b);
      }

      .d {
        fill: #999;
      }

      .e {
        fill: #aaa3a6;
      }

      .f {
        fill: #666;
      }

      .g {
        fill: #001413;
      }

      .h {
        fill: #b2001d;
      }

      .i {
        fill: #000708;
      }

      .ab, .ac, .j {
        fill: #fff;
      }

      .k {
        fill: #26211e;
      }

      .l {
        fill: #171312;
      }

      .m {
        fill: #312a26;
      }

      .n {
        fill: #c8a085;
      }

      .o {
        fill: #3c2821;
      }

      .p {
        fill: #614e43;
      }

      .q {
        fill: #333;
      }

      .r {
        fill: #986675;
      }

      .s {
        fill: #c1272d;
      }

      .t {
        fill: #1a1a1a;
      }

      .ah, .ai, .aj, .ak, .al, .am, .u {
        fill: #ccc;
      }

      .v {
        fill: #bf997d;
      }

      .w {
        fill: #473a33;
      }

      .x {
        fill: #5c000a;
      }

      .y {
        fill: #362e2a;
      }

      .z {
        fill: #ad7f68;
      }

      .aa {
        fill: #a3826b;
      }

      .ab, .ac {
        stroke: #fff;
      }

      .ab {
        stroke-width: 0.62px;
      }

      .ac, .ad, .ae, .ag, .ah, .aj {
        stroke-width: 1.24px;
      }

      .ad {
        fill: #ed1c24;
      }

      .ae {
        fill: #662e0e;
        stroke: #70513e;
      }

      .af, .ag {
        fill: #3d3330;
      }

      .ag {
        stroke: url(#c);
      }

      .ah {
        stroke: url(#d);
      }

      .ai {
        stroke-width: 0.65px;
        stroke: url(#e);
      }

      .aj {
        stroke: url(#f);
      }

      .ak {
        stroke-width: 0.82px;
        stroke: url(#g);
      }

      .al {
        stroke-width: 1.06px;
        stroke: url(#h);
      }

      .am {
        stroke-width: 1.05px;
        stroke: url(#i);
      }

      .an {
        fill: #5e4233;
      }

      .ao {
        fill: #f2f2f2;
      }
    </style>
    <clipPath id="a">
      <ellipse class="a" cx="519.67" cy="537.12" rx="437.41" ry="445.75"/>
    </clipPath>
    <linearGradient id="b" x1="2094.33" y1="-1533" x2="3205.16" y2="-1533" gradientTransform="translate(-2146.85 2088.88)" gradientUnits="userSpaceOnUse">
      <stop offset="0" stop-color="#fff"/>
      <stop offset="1" stop-color="gray"/>
    </linearGradient>
    <linearGradient id="c" data-name="Carbon 01" x1="328.65" y1="972.81" x2="573.22" y2="972.81" gradientUnits="userSpaceOnUse">
      <stop offset="0" stop-color="#85868c"/>
      <stop offset="0.34" stop-color="#c1c1c2"/>
      <stop offset="0.69" stop-color="#5c5c63"/>
      <stop offset="1" stop-color="#2f2f33"/>
    </linearGradient>
    <linearGradient id="d" data-name="Chrome 02" x1="490.95" y1="998.29" x2="512.88" y2="998.29" gradientUnits="userSpaceOnUse">
      <stop offset="0.07" stop-color="#66605c"/>
      <stop offset="0.09" stop-color="#29241e"/>
      <stop offset="0.09" stop-color="#29241e"/>
      <stop offset="0.11" stop-color="#29241e"/>
      <stop offset="0.11" stop-color="#39342e"/>
      <stop offset="0.11" stop-color="#68635e"/>
      <stop offset="0.11" stop-color="#908c87"/>
      <stop offset="0.12" stop-color="#b1ada8"/>
      <stop offset="0.12" stop-color="#cac7c2"/>
      <stop offset="0.13" stop-color="#ddd9d4"/>
      <stop offset="0.13" stop-color="#e7e4df"/>
      <stop offset="0.14" stop-color="#ebe8e3"/>
      <stop offset="0.16" stop-color="#ebe8e3"/>
      <stop offset="0.23" stop-color="#a49b90"/>
      <stop offset="0.24" stop-color="#a2998e"/>
      <stop offset="0.24" stop-color="#9c9388"/>
      <stop offset="0.25" stop-color="#999084"/>
      <stop offset="0.25" stop-color="#999084"/>
      <stop offset="0.26" stop-color="#999084"/>
      <stop offset="0.26" stop-color="#968e82"/>
      <stop offset="0.27" stop-color="#8b8379"/>
      <stop offset="0.29" stop-color="#847d74"/>
      <stop offset="0.33" stop-color="#827b73"/>
      <stop offset="0.39" stop-color="#827b73"/>
      <stop offset="0.4" stop-color="#827b73"/>
      <stop offset="0.42" stop-color="#817c75"/>
      <stop offset="0.52" stop-color="#918d87"/>
      <stop offset="0.52" stop-color="#8e8a84"/>
      <stop offset="0.57" stop-color="#7c7671"/>
      <stop offset="0.71" stop-color="#7d7772"/>
      <stop offset="0.74" stop-color="#2b2924"/>
      <stop offset="0.8" stop-color="#2b2924"/>
      <stop offset="0.84" stop-color="#fdfcf9"/>
      <stop offset="0.85" stop-color="#fdfcf9"/>
      <stop offset="0.89" stop-color="#b7aea5"/>
      <stop offset="0.91" stop-color="#817974"/>
      <stop offset="1" stop-color="#817974"/>
    </linearGradient>
    <linearGradient id="e" x1="800.36" y1="1105.22" x2="806.6" y2="1105.22" xlink:href="#d"/>
    <linearGradient id="f" x1="529.56" y1="795.83" x2="551.49" y2="795.83" xlink:href="#d"/>
    <linearGradient id="g" x1="722.68" y1="808.72" x2="736.41" y2="808.72" xlink:href="#d"/>
    <linearGradient id="h" x1="536.56" y1="681.57" x2="555.28" y2="681.57" xlink:href="#d"/>
    <linearGradient id="i" x1="649.45" y1="1126.08" x2="669.27" y2="1126.08" xlink:href="#d"/>
  </defs>
  <title>Asset 1</title>
  <g class="b">
    <rect class="c" x="-52.52" y="53.45" width="1110.83" height="1004.86" transform="translate(-52.99 1058.78) rotate(-90)"/>
    <path class="d" d="M561,712.55a.75.75,0,0,0,.41.52c3.58,1.73,34.05,15.9,44.44,16,5.17,0,14.51-2.33,16.22-3.26s9.93-5.58,11.48-8.38,12.78-30.72,8.74-46c-1.2-4.54-11.59-20.71-17.39-24.63-2.46-1.67-7.85-4.31-7.76-3.57,1.31,9.87,9.21,51.12,1.52,55.44-8.85,5-32.44,5.12-49-6.83C554.05,680.59,560.19,709,561,712.55Z"/>
    <path class="e" d="M619.79,646.21a5.84,5.84,0,0,0-.81-1.73C618.79,644.25,619.08,644.87,619.79,646.21Z"/>
    <path class="e" d="M788.49,1142.72l-23.18-221L749,919.88c-.35-3.3-.64-6.15-.86-8.49-1.39-14.68-15.4-47.62-33.71-85.52.4-.48.43-1.83,0-4.17-5.58-33.21-71.53-157.05-71.53-157.05l-2.22,19.79C630.08,665,622.3,651,619.79,646.21c3,8.72,6.37,43.38,3.53,47.93-3.1,5-8.07,6.82-15.52,8.06s-14.89,0-22.34-1.86-9.31-4.34-9.31-4.34-11.59,19-16.56,23.59c-3.78,3.46-1.32,35.7.43,54H558.4l-1.86,43.24,44.69,102.42.81-.54c15.27,44.63,36.33,106.8,36.59,115,.42,12.82,39.32,87.73,39.32,90.62s12,92.7,12,94.35,92.28-.62,92.28-.62c.22-7.49-3.47-42.5-8.51-86.61Z"/>
    <path class="f" d="M576.77,696.77c2.17.62,23.9,8.07,31.5,5.9s14.43-6.52,14.74-9.31-3.67-45.68-5.84-49.4,19.65,28.6,20.12,31.71,4.34,44.54-15.83,50.9-50.9-4.5-60.06-13.5S575.68,696,575.68,696Z"/>
    <path class="g" d="M668.89,884.91s17.38-43-15.72-72-54.63,6.62-54.63,6.62-12.82,41.39,35.18,70.77c0,0-17.79,22.76-18.21,31.86,0,0-14.69-48.21-29.79-48.68,0,0,12.82,49.51,14.89,59.85s21.11,39.73,21.11,39.73l17-24s26.48,22.76,28.14,25.66-2.9-36.42-5.8-41-8.27-26.49,7-33.11,23.17,3.31,23.17,3.31l11.59,14.49s0-1.66,3.72,1.24,16.56,23.59,17.38,28.14,3.31,2.07,3.31,2.07-10.34-31.45-17.79-38.49S684.62,886.15,668.89,884.91Z"/>
    <path class="g" d="M704.48,948.22s6.21,0,9.93,12.83,7.87,44.28,3.73,45.11-9.52-.42-17.38-27.73C700.76,978.43,696.21,949.88,704.48,948.22Z"/>
    <path class="g" d="M726.83,952.77s-9.93,0-2.48,28.56c0,0,0,7,2.48,7.86S735.93,986.71,726.83,952.77Z"/>
    <path class="h" d="M683.72,1170.86c.39-1.65,3.83-2.21,5.3-1.39,7,4,22.93,11.33,29.27,10.85,8.22-.61,11.56-2.74,14-4.19s12.5-9.83,13.7-12.72,14.37-19.33,14.85-24.07,5.08-22.24,3.14-26.57,7.73,4.33,8.94,6.8,7.73,34.4,7.49,36.66,1.93,28.84,2.41,33.37,3.14,23.28,2.18,26c-.88,2.43-86.12,1.29-101.68,1.06a2.55,2.55,0,0,1-2.52-2.46l-1.09-30.33a2.49,2.49,0,0,1,.41-1.47C681.21,1180.62,682.63,1175.48,683.72,1170.86Z"/>
    <path class="i" d="M765.63,1116.23s-8.7,32.28-14.59,40-11.26,18.19-21.81,23.15-31.43-3.6-31.43-3.6-2.16-.31-17.67-6.35c-10.36-4-14-48-15.19-76.79,2.6-.36,1.81.62,3.67-1.1,4.45,11.05,13.6,20.75,20,24.34,13,7.29,23.28,4,23.28,4a54.15,54.15,0,0,0,5.28-9.79c2.48-5.88,8.53-18.77,6.83-21.87l-.31-.77-8.07-1.4s-1.87,18.31-8.69,22.34-11.8.31-13.35-.62-7.61-10.39-8.38-12.25-11-30-11.48-33.52-2.65-13-3.27-15.84-16.29-40.19-16.29-40.65-3.05,2.06-4.39,1.8c-3.94-.75,3.46-8.17,3.46-8.17s6.88,3.16,7.24,4.71-1.34,1.4-3,.78l-1.69-.61c.26.76,8.8,24.65,10.44,27.3s9.1,17,10.34,18.72,4.44,8.29,10.14,12.32a48.5,48.5,0,0,0,8.27,7c3.94,2.38,9.42,6.51,17.38,8.9s19.24,2.48,20.18,2.07,10.55-5.18,14.27-11.07,17.42-37.93,18-39.37c-.2,1-3.5,16.88-5.87,20.75s-4.82,14.48-6.78,17.38-9.93,12-13.25,14.06S761,1100.71,765.63,1116.23Z"/>
    <path class="j" d="M755.62,1178.85a16.67,16.67,0,0,0-3,10.71c.62,6,2.4,25,3,26.07s7.84,2.33,9.39.54,1.24-1.32,1.24-5S762.13,1174,755.62,1178.85Z"/>
    <path class="j" d="M766,1150.45s-2.25,2.48-1.63,13.11,2.72,30.11,5.2,32.67,3.57-3,3.57-3S772.14,1146,766,1150.45Z"/>
    <path class="h" d="M675.31,1055.61s29.59,31,29.17,39.31-3.51,11-5.17,10.76-11-.62-13.66-8.48-12.82-37-11.58-39.32Z"/>
    <path d="M729,991.16s0,3.72,2.17,3.72a11.32,11.32,0,0,0,4.58-1.32c2-1.28,3.93-2.58,5.86-3.92,3-2.07,5.68-4.48,8.93-6.12a5.9,5.9,0,0,0,3.26-3.15,3.86,3.86,0,0,1,.22-.68c.57-1.09,2.79-2,3.86-2.5a7.72,7.72,0,0,0,2.24-1.48c1.7-1.62,1.39-.46,1.39-.46S726.67,1007.37,729,991.16Z"/>
    <ellipse cx="768.42" cy="993.79" rx="11.48" ry="24.05"/>
    <path class="k" d="M650.68,1057.11a11.6,11.6,0,0,0-.62-3.35c-2.26-6.75-15.46-45.93-32.11-90.5l.67,1.1s-44.49-138.84-58.56-147.53c0,0,0,6.77.09,15.46l-.09-.14A12.39,12.39,0,0,0,537.9,835c-2.78,8.5-4.81,19.41-3,31.07,4,26.07,76.76,168.22,98.13,186.84C649,1066.88,650.79,1061,650.68,1057.11Z"/>
    <ellipse class="k" cx="551.32" cy="827.9" rx="14.74" ry="12.73"/>
    <g>
      <path class="l" d="M690.5,1216.72,163.61,1218l.08-51.83c20.66,28.38,44.84,44.69,70.7,44.69,63.61,0,117.14-98.82,133-233.07,45.59-39.46,75.5-105.78,75.5-181,0-110.85-65.06-202.47-149.49-217.09,8.9-2.11,19.48-5.06,23.08-7.93,0,0,27-13.56,37.55-14a77.31,77.31,0,0,1,9.31.22c5.69.41,20.59.41,20.59.41l43.76-33.21s55.73,49.56,95.23,89.34a1.18,1.18,0,0,1,.4-.65c1.65-1.41,7,2.14,11.82,7.85,4.1,4.87,6.6,9.82,6.24,12.06,9,9.78,15.69,18,18.52,23.3,0,0,4,3.42,3.69,5.28s13,9.83,14.52,24.11S558.3,719.9,558.3,719.9s.46,1.55.46,6.82,3.1,79.46.78,87.07-1.14,58.28-.31,69.46,30.42,125,82.56,170.29,48.42,149.6,48.42,162A2.7,2.7,0,0,0,690.5,1216.72Z"/>
      <path class="l" d="M690.51,1216.72c5.62,10.68,90.32,2.55,90.32,2.55s0-1-.13-2.78Z"/>
    </g>
    <path class="l" d="M797.59,941.19c-3.1-18.63-29.17-108-36-120.43s-13-14.27-13-14.27c-.63-8.69,3.1-49.66,1.86-62.08s-8.69-22.34-9.31-29.79-14.9-24.21-14.9-24.21l11.79-.62c-10.08-15.12-97.49-65.12-114.46-74.74l-.54-.3-2.32-1.31-.06.66c-.16,0-.32,0-.48,0-5.46,0-9.88,7.16-9.88,16s4.42,16,9.88,16a6.35,6.35,0,0,0,1.07-.09c62.34,50.51,134.32,309.24,141.62,327.5,7,17.41,16.64,217.07,17.87,243l45-.11C825.73,1199,800.7,959.81,797.59,941.19Z"/>
    <ellipse class="m" cx="427.95" cy="524.78" rx="27" ry="53.9"/>
    <path class="n" d="M421.84,518.67c-2.39-1.78-6.62-91.86-.82-104.28s46.34-50.48,60.41-60.42,82.77-74.48,110.08-87.73,85.25-16.55,105.94-8.27,33.1,24.83,37.24,32.28a25.92,25.92,0,0,1,3,15s5.9,9.31,5.28,12.1-5.28,20.17-10.24,24.21l-.31,3.1s14.27,11.18,15.82,15.83,1.56,14.28,0,16.45-9.31,8.69-11.48,9-7.45,14-9.93,14.28,5.9,53.69,5.9,53.69-14.9,69.83-40.35,77.59c0,0-59.9,41.28-63.94,52.77,0,0-6.2,22.34-6.82,27.93s-8.07,25.14-5.9,28.24,12.1,50.59,4,56.49-18.62,6.21-24.52,5-16.76-4.65-18.31-5.58-1.55-14.9-3.72-19.25-9.93-12.1-12.73-14.58-19.24-33.83-33.21-43.76S432.5,526.64,421.84,518.67Z"/>
    <path class="o" d="M695.33,383.46c-.48-.29-2.18-9,8.07-11.95s27,3.26,27,3.26,3.26,1.71,3.1,3.1-4.34,6.05-6.83,5.74-13.34-2-20.32.47S696.88,384.39,695.33,383.46Z"/>
    <path class="p" d="M696.83,399.49c-1.46.11-33.52.83-37.45,11.8s-19.45,41.17-19.25,49.45-9.93,22.35,2.07,39.73,88.15,53.38,98.49,51.93,24.62-2.07,24.21-7.24-11-6.62-20.28-25.66-11-21.93-11.58-38.28-.62-12-2.28-20.48S757.87,395.15,696.83,399.49Z"/>
    <path class="q" d="M719.84,431.8s1.53,7.12-2.12,7.52c0,0-31.46-11.89-45-8.57S688,418,719.84,431.8Z"/>
    <path class="d" d="M717.1,431.75s2.69,3.46.42,5.71c0,0-25.14-11.24-39.11-7.79S692.64,419,717.1,431.75Z"/>
    <path class="r" d="M689.37,429.8a51,51,0,0,0-12.14,1.09,1,1,0,0,0,.1-.5c30.33-8.52,42.88,5.31,42.88,5.31s6-2.89-1.66-9.51a29.24,29.24,0,0,0-17.38-6.63s-15.31-1-22.55,2.49S657.14,438.37,657.93,438l.9-.43c-.52.52-.82.84-.82.84,1.18.47,4.74-.29,8.5-1.56l-.33.28.81-.44a53.89,53.89,0,0,0,5.26-2.15c3.08-.78,6.22-.68,11.54-.68,15,0,28,1.92,34,9.91.78.75,5.65,3.87,5.65,3.87C721.44,437.77,706.71,429.8,689.37,429.8Z"/>
    <path class="s" d="M391.43,441c-2.77-1.11-35.18-23.17-36-83.18s1.25-134.49-1.24-138.63c0,0-22.6-14.9-23.38-23.12s15.52-21.73,17.85-21.26,10.24-1.24,14.59-2.79S391,162.53,403,161.29s22.66-8.69,29-5.74,74.49,1.55,74.49,1.55,14.9,1.24,23.17,1.65,154.77-25.24,197,105.94c0,0,0-.2,3.93,4.76s9.94,20.8,8.85,34.45c0,0-5.59-55.55-90.94-47.64-1.7.31-71.54,9-116.85,56,0,0-56,57.57-59.9,58.2S435.86,388,429.19,402.92s-5.48,38.06-8,40.54S399.7,444.29,391.43,441Z"/>
    <path class="o" d="M334.84,489.29s33.83-34.91,44.69-31.34,7.14,7.76,7.14,7.76S351.91,478.9,347.87,486,337,494.41,334.84,489.29Z"/>
    <path class="t" d="M533.47,309c3.11-.31,81-14.28,81-14.28s6.51.31,8.38,10.25,0,25.76,9,30.72,48.76,21.11,56.79,20.8,22.45-11.38,25.45-25.76c0,0,4.66-5.07,12.32,7.76,0,0,2.89-13.45,4.55-14.7s8.48-2.89,14.07.42,26.28,10.76,27.31,22.55-1,34.76-5,38.28c0,0-3.72,5.38-19.45-6.62l-.75-.48-3.44,4.46s14.33,7.19,16,7.61,8.27,2.07,10.14-1,6.62-18.83,7.24-21.1,1.24-4.14,1.24-4.14,4.35-12.42,2.28-15.93-23-29.59-42.42-29c0,0-20.28,4.76-37.45-18.62,0,0-42-25.25-73.87-24.42L564.4,285.9l-13.86,8.28Z"/>
    <path class="u" d="M637.44,285.49s46.77-4.35,68.28,29.79c0,0,7.25,28.14-10.75,35,0,0-20.08,5-53.18-15.93C641.79,334.32,621.31,322.52,637.44,285.49Z"/>
    <path class="u" d="M732.55,325c1.77-.42,20.24-4.2,38.14,18,0,0,5.8,30-4.34,42.62,0,0-5.38,3.31-18.21-7,0,0,4.35-17.59-2.69-22.14,0,0-15.1-12.62-17.17-15.94s-1.46-10,4-15.41A.49.49,0,0,1,732.55,325Z"/>
    <path class="v" d="M476.05,445.84c-1.46-10.73,3.3,12.22,6.55,14.89,6.21,5.08,13.95,16.65,28.37,27.4,19.36,14.44,126.45,31,150.06,32.2,2.71.14-65.93,0-74.49,0-18.43,0-54.12-1-86.67-23.35C495.92,494.26,481.21,483.63,476.05,445.84Z"/>
    <path class="w" d="M471.78,688.49c-1.21-6.9-6.71-34.94-13.73-39a23.56,23.56,0,0,0-7.61-2.71,3.8,3.8,0,0,0,1.93-1.43c2.74-3.84.22-13,.72-14.79.62-2.17-11.49-7.45-11.49-7.45a14.49,14.49,0,0,0-2.39-.29c-.87-3.11-4.33-5.45-8.54-5.59,0-.1.05-.2.06-.3l.32,0c2.79,0,6.21-5.58,7.14-12.72S427,591.4,427,591.4s.54,6.3-2.65,7.71c-.41-9.8-3.47-24.84-1.7-39.88a1.8,1.8,0,0,0-.93-.66,19.72,19.72,0,0,0,2.17-5c1.24-5.69-8.69-7.76-8.69-7.76-.65.12-1.26.26-1.87.39a13.13,13.13,0,0,0,3.11-4.74c1.41-3.75-.78-8.44-2.94-11.8a13.18,13.18,0,0,0-4.59-20.72c6.48-9.17,12-19.61,8.77-25.2A18.12,18.12,0,0,0,415,482.1c3.86-3.92,7.06-16.7,7.06-16.7s2.79-45.94-2.17-48.73c0,0-22.66,8.69-25.14,24.83s-14.9,13-14.9,13a19.93,19.93,0,0,0,.35,2.13c-3.66,1.89-14.21,8.57-11.21,21.25a15.68,15.68,0,0,0-5,11.23c0,.06,0,.12,0,.18-8.53-1.1-15.06,2-15.84,6.18-1.24,6.62.83,12,5.38,13.66,3,1.07,5.06,3.2,8.55,3.87.07.18.13.37.2.55-4.46,1.1-8.15,2.81-8.75,5.51-1.87,8.43,11.59,13.24,11.59,13.24l1.7-.65a6.3,6.3,0,0,0-.05.75,6.81,6.81,0,0,0,.67,2.89c-.08.11-.17.19-.25.32s-7.45,7-2.07,14.9c4.43,6.47,10.25,12.93,14.72,15.25,0,.31,0,.62,0,.94a14.64,14.64,0,0,0,1.27,6.25c-2.15,2.7-4.28,6.39-3.44,9.73,1.55,6.21,3.41,15.83,7.76,16.14,1.81.13,4.86-.77,7.8-2.22-.71,3.89-1.14,7.29-.66,8.12a3,3,0,0,0,1.55.86c0,3.61,1.13,6.77,2.81,8.62-.12.55-.25,1.1-.33,1.69-1.25,8.78-.53,8.14.7,6.39a3.74,3.74,0,0,0-.08.75c0,3.26,3.82,5.9,8.54,5.9a11.16,11.16,0,0,0,5.32-1.29,10.57,10.57,0,0,1,.11,1.6c0,9.31,5,.93,13,10.86s5.28-4,10.56,6.83c.17.36.34.69.5,1a3.36,3.36,0,0,0-1.44,1.17c-1.55,2.8-1.24,25.76,3.73,32.28s23,29.8,21.72,34.45-1.24,10.86-4.34,19.55a21.23,21.23,0,0,0,.62,15.83l2.48-9.31.62,13.66s4-15.83,5.59-21.42-.62,17.07-.62,17.07.93,22.35,7.76-9.31C477.8,712.23,472.46,691,471.78,688.49ZM382,540.61q-.46-.5-.93-.9l.27-.11C381.51,539.94,381.72,540.29,382,540.61Zm10.57,25.76a4.21,4.21,0,0,0,.48-2.1l.88-.14a29.59,29.59,0,0,0,.31,3A9.4,9.4,0,0,0,392.52,566.37Zm20.65,30.44c-1.48-5.13-4.68-10.56-11.48-12.95l.12-.9a5.83,5.83,0,0,0,3.45-5.15,18.67,18.67,0,0,1,2.82.25c7.14,1.24,4-4.66,4.66-6.21a8.53,8.53,0,0,1,.77-1.24,13.56,13.56,0,0,0,2.31-.73c-2.89,6.39-5.8,13.83-5.15,16.66,1.06,4.59,4.21,6.47,4.35,9.75C414.53,596.4,413.9,596.58,413.17,596.81Z"/>
    <path class="x" d="M473.93,676.57c-.51-2.76,12.74-3.68-4.08-4.14-6.32-.17-13.14-.09-19.19.09,6-.77,12.78-2.2,19.19-3.32,13.25-2.3,0-15.66-1-12-.66,2.39-10.4,5.38-23.72,5.52,9.69-1,19.27-4.7,21.17-6.91,3.57-4.14,1.53-9.21-8.66-3.22s-35.36.52-33.13,4.14a12.4,12.4,0,0,0,7.29,5.18,90.2,90.2,0,0,1-10.35-2s7.14,7.83,13.76,11.52a13.64,13.64,0,0,0,5.17,1.41c-4.68.22-7.72.43-7.72.43,6.63,4.15-1,10.6,5.1,8.75,2.24-.67,3.11-.54,4-.25-1.58,3.16-4.84,6.25,1.64,6.7,0,0-2.55,4.15,4.58,7.83s16.32-3.22,28-5.52l-2-4.61s-2,.1-5,.16l.94-.62C475,681.18,484.12,676.11,473.93,676.57Zm-12,3.51c-2.75,1.25-5.31,2.2-8.87,1.56C456.32,681,459.3,680.47,461.9,680.08Z"/>
    <path class="w" d="M644.41,609.81a112,112,0,0,0-11.28-4.89c4.64,1.22,9,2.32,9,2.32,4.67-22.17-10.89-27-12.1-27.32,0,0-6.4,10.48-6.4,11s-1,10.3-1.21,10.82c-.05.15,1.68.7,4.13,1.4a15.69,15.69,0,0,0-2.4-.2c-3.46,0-3.81,13.57-3.81,13.57s32.22,16.83,33.55,16.15C653.92,632.66,655.65,615.31,644.41,609.81Z"/>
    <path class="w" d="M730.14,683s.41.21,3.93-5,5-3.31,4.14-9.52,1.86-6.62-1-8.49-8.06-8.27-3.51-5.17,8.07,2.48,8.07,9.11,2.69,12.62-3.31,16.76-5.18,6.41-.83,8.69,2.48-1.25,6.41,3.1,5.18,5,2.49,7.24-2.28,13-2.28,13,6.21,0,6.83,7.45,2.48,25.45-4.35,11.17c0,0,6.62,4.45-2.07-7.66s-.93-17.17-2.38-22.34-4.55-10.35-6.62-10.87S730.14,683,730.14,683Z"/>
    <path class="y" d="M444.91,796.87c0-121-77.53-219.12-173.18-219.12a138.55,138.55,0,0,0-28.16,2.9,60.17,60.17,0,0,0-7.11-.42c-24.32,0-47.17,14.46-67,39.8-43,39.87-70.93,104.22-70.93,176.84a277.48,277.48,0,0,0,2.71,38.81c-1.62,19.39-2.49,39.4-2.49,59.88,0,174.15,61.65,315.33,137.7,315.33,63.61,0,117.15-98.81,133-233.07C415,938.35,444.91,872,444.91,796.87Z"/>
    <path class="l" d="M442.84,796.87c0,75.17-29.91,141.49-75.5,181-15.81,134.25-69.34,233.07-132.95,233.07-25.86,0-50-16.31-70.7-44.69-40.14-55.11-67-155.69-67-270.64,0-20.48.86-40.49,2.48-59.89a278.66,278.66,0,0,1-2.7-38.8c0-70.93,26.64-134,68-174,1-1,2-1.91,3-2.83q4.83-6.16,9.88-11.46c17.4-18.18,36.74-28.34,57.11-28.34a62.37,62.37,0,0,1,7.11.41,138.92,138.92,0,0,1,51.85-.86C377.78,594.4,442.84,686,442.84,796.87Z"/>
    <path class="n" d="M427.76,399.36c-.44-.13-.29.43.63,3.34,2,6.34,19.61,26.65,27.39,29.69,9.17,3.59,32.24-.31,23.07-25l-3.49-10.76s-22.49-21.35-34.27-16.42A22.3,22.3,0,0,0,427.84,397Z"/>
    <path class="z" d="M439.43,391.65a.49.49,0,0,0,.24.84c4.05.74,19.61,3.81,23.81,8.06,4.84,4.9,6.83-3.14,6.83-3.14s-.14-6.46-3.27-9.21-8.5-3.72-7.79-6.86-2.75-3.12-3-2.85C455.43,379.3,442.77,388.53,439.43,391.65Z"/>
    <path class="aa" d="M481.78,417.54c-11.95,44-41.63,6.27-53.7-11.8a1.73,1.73,0,0,0,.25-.44c33.25,45.33,48,23.93,52.9,11.95A3.19,3.19,0,0,0,481.78,417.54Z"/>
    <path class="j" d="M512.83,246.28s15.68-10.71,17.38-13.35-18.31-4.19-23,3.73C507.25,236.66,515.78,239.76,512.83,246.28Z"/>
    <path class="j" d="M583.91,202.1s16.76-32.45,35.84-13.52"/>
    <path class="j" d="M589.34,175.2c.62-16-23-12.81-25.3-4.48"/>
    <path class="j" d="M616.11,223.43s20.67-4.7,24.17-.2-1.32,9.51-1.67,9.58-10.28,4.31-14.32,1.6-3.45-5.59-3.33-6S618.32,223.47,616.11,223.43Z"/>
    <path class="j" d="M688.16,222s1.35-1.58,4.22-.21,15,10.09,17.56,18.06c0,0-11.3-7.74-14.59-7.89S686.51,224.27,688.16,222Z"/>
    <path class="j" d="M671.58,185.55s6.21,8.69,8.07,10.14,9.31,5.38,10.56,5.58S683.79,190.31,671.58,185.55Z"/>
    <path class="j" d="M521.94,272.5c-.47-.3,14.32-25.4,35.53-15.15,0,0-19.14,9.62-22.4,13.29A10.48,10.48,0,0,1,521.94,272.5Z"/>
    <path class="j" d="M457.74,323.4s-3.41,5.28,5.9,7,12.88,1.24,14.28-5.28,4.19-9.93-2.95-10.4S462,317.76,457.74,323.4Z"/>
    <path class="j" d="M449.36,308c-5.89,4-7.14,13-12.1,9.31s-3.11-5.59,1.55-6.83S449.36,308,449.36,308Z"/>
    <path class="j" d="M453.4,293.45c-6.52,4.35-8.38,5.9-5,5.9s4.66.93,8.07-1.24,8.38-3.42,4.66-5.28S453.4,293.45,453.4,293.45Z"/>
    <path class="j" d="M454.64,278.56c-7.14,2.79-9.62,4.34-7.45,6.51s2.17,3.42,7.14,1.55,6.52-2.17,8.38-5S454.64,278.56,454.64,278.56Z"/>
    <path class="j" d="M464.57,266.14c-6.83,4.35-11.17,5.59-4,5.9s12.1-1.86,12.1-5.28S464.57,266.14,464.57,266.14Z"/>
    <path class="j" d="M469.23,252.17c-5,5-9.32,7.76-3.11,6.52s4.66-2.48,7.45-5.27S469.23,252.17,469.23,252.17Z"/>
    <path class="j" d="M477.92,239.14c-5,1.55-9.32,5-7.45,5.9s3.72,2.48,6.51,1.24,4.35-1.24,4.35-3.11S477.92,239.14,477.92,239.14Z"/>
    <path class="j" d="M480.4,226.41c-2.48.62-10.24,2.18-7.76,5.59s-.93,7.14,5.28,3.72,7.76-5.89,8.07-7.13S480.4,226.41,480.4,226.41Z"/>
    <path class="j" d="M493.12,214.31c-8.07,1.55-16.45,4-10.86,5s13-3.11,13-3.11Z"/>
    <path class="j" d="M497.47,204.38c-7.45,1.55-12.11,4-8.07,5.27s10.55.62,11.79-.31S497.47,204.38,497.47,204.38Z"/>
    <path class="j" d="M499.33,194.45c-4,2.17-5,9,.93,7.75s14-5,13.35-6.51S499.33,194.45,499.33,194.45Z"/>
    <path class="j" d="M512.06,184.2c-8.38.31-21.73,1.56-14,3.73s13.66,3.41,15.52,2.48S512.06,184.2,512.06,184.2Z"/>
    <path class="j" d="M523.85,176.44c-7.45,0-13.66,3.42-6.83,3.73s6.52.93,10.24-.31S523.85,176.44,523.85,176.44Z"/>
    <path class="j" d="M531.92,166.82c-1.24.31-21.11.31-12.42,3.11s16.14,1.55,17.7.93S531.92,166.82,531.92,166.82Z"/>
    <path class="j" d="M536,160.93c-2.17.62-5,4.65.63,5S536,160.93,536,160.93Z"/>
    <path class="j" d="M462.4,155.65c1.2.44-26.69,3.72-21.42,18.93s28.87-11.48,28.87-11.48-15.52,30.1-27.94,19.24S443.78,148.82,462.4,155.65Z"/>
    <path class="ab" d="M467.05,169.62s14.28-2.18,11.8,6.2-48.11,27.63-62.7,52.77,22,3.41,22,3.41-19.86,7.76-20.8,3.1,17.07-22.65,24.21-27.93S506.62,167.13,467.05,169.62Z"/>
    <g>
      <path class="j" d="M443.57,259.21c.1.82,2.69-15.31-12.83-14.69s-29.59,24.83-29.59,24.83-5.17,9.93,4.14,14.07,12.41-.62,15.31,1.24a84.36,84.36,0,0,1,7.16,5.57l.5.43s-6.62-5.38-9.73-4.35-16.14-1.24-17.17-2.89-3.1-4.14-3.73-10.76S438.4,216.79,443.57,259.21Z"/>
      <path class="j" d="M443.58,259.21a.63.63,0,0,0,0-.14l0-.2.05-.4c0-.28.05-.55.06-.82,0-.55,0-1.09,0-1.64a16.72,16.72,0,0,0-.51-3.23,10.32,10.32,0,0,0-9.22-8.05,17.29,17.29,0,0,0-6.49.35,28.91,28.91,0,0,0-11.33,6.31,67.42,67.42,0,0,0-9,9.49c-1.35,1.72-2.65,3.48-3.87,5.29-.62.9-1.21,1.82-1.78,2.75a11.22,11.22,0,0,0-1.23,3,11,11,0,0,0,0,6.42,8.69,8.69,0,0,0,4.32,4.65,19.67,19.67,0,0,0,6.2,2,16.3,16.3,0,0,0,6.47-.59,9,9,0,0,1,1.64-.25,3,3,0,0,1,1.6.4,31.66,31.66,0,0,1,2.69,1.89c1.74,1.34,3.43,2.73,5.09,4.15l-.11.14a29.36,29.36,0,0,0-5.82-3.66,7.17,7.17,0,0,0-3.28-.76,14.22,14.22,0,0,1-1.7.33,16.84,16.84,0,0,1-1.74,0,46.69,46.69,0,0,1-6.88-.74,29.18,29.18,0,0,1-6.7-1.82,2.6,2.6,0,0,1-.75-.52c-.2-.25-.32-.48-.49-.73-.32-.48-.63-1-.91-1.48a17.67,17.67,0,0,1-1.38-3.19,24.86,24.86,0,0,1-.79-3.39c-.09-.57-.17-1.14-.22-1.72a3.41,3.41,0,0,1,.17-1.76,27,27,0,0,1,3.35-6.07c1.32-1.9,2.74-3.72,4.23-5.49a80,80,0,0,1,9.77-9.8,38.66,38.66,0,0,1,11.83-7.09,12.83,12.83,0,0,1,6.86-.55,9.5,9.5,0,0,1,5.61,3.84,20,20,0,0,1,2.9,6.25A43.56,43.56,0,0,1,443.58,259.21Zm0,0a43.38,43.38,0,0,0-1.35-6.77,20.11,20.11,0,0,0-2.93-6.21,9.44,9.44,0,0,0-5.56-3.76,12.65,12.65,0,0,0-6.75.6,38.21,38.21,0,0,0-11.71,7.13,81.54,81.54,0,0,0-9.73,9.76c-1.48,1.76-2.9,3.58-4.21,5.47a26.89,26.89,0,0,0-3.33,6,3.16,3.16,0,0,0-.15,1.64c.05.57.13,1.14.22,1.71a22.49,22.49,0,0,0,.78,3.34,15.57,15.57,0,0,0,1.35,3.14c.27.5.58,1,.89,1.47.16.23.32.51.48.7a2.14,2.14,0,0,0,.66.45,18.15,18.15,0,0,0,3.24,1.09c1.12.28,2.24.52,3.37.72a46.48,46.48,0,0,0,6.85.77,16.21,16.21,0,0,0,1.71,0,15.26,15.26,0,0,0,1.7-.31,7.16,7.16,0,0,1,3.38.79,29.47,29.47,0,0,1,5.85,3.7l-.11.13c-1.65-1.42-3.34-2.82-5.07-4.16-.87-.66-1.74-1.33-2.67-1.9a3,3,0,0,0-1.53-.39,9.78,9.78,0,0,0-1.61.24,16.66,16.66,0,0,1-6.51.58,19.68,19.68,0,0,1-6.25-2,8.8,8.8,0,0,1-4.41-4.71,11.14,11.14,0,0,1,0-6.52,11.68,11.68,0,0,1,1.23-3.05c.57-.94,1.17-1.86,1.78-2.77q1.83-2.73,3.86-5.32a63.25,63.25,0,0,1,9-9.54,29,29,0,0,1,11.45-6.28,17.4,17.4,0,0,1,6.55-.32,11.24,11.24,0,0,1,6,2.57,11,11,0,0,1,3.29,5.6,16.17,16.17,0,0,1,.5,3.25c0,.54,0,1.09,0,1.64,0,.27,0,.55-.06.82l-.05.41,0,.2,0,.1,0,.05s0,0-.05,0Z"/>
    </g>
    <path class="ac" d="M409,161.55c-7.63,2.41-11.79,11.48-5.27,9.31s3.72-.31,7.45-3.73S414.91,159.68,409,161.55Z"/>
    <path class="ac" d="M408.39,176.44c-1.55,2.49-7.44,5.9.31,2.8s14.28-4.35,11.8-6.52S408.39,176.44,408.39,176.44Z"/>
    <path class="ac" d="M410,183.89c-2.73-5.75-6.21,4-4.35,6.21s.62,5.28,3.73.93S412.74,189.79,410,183.89Z"/>
    <path class="ac" d="M411.81,195.38c-4,5.58-6.21,10.86-1.86,8.07s1.24.31,5.27-4.35,10.24-5.9,3.73-6.52S411.81,195.38,411.81,195.38Z"/>
    <path class="ac" d="M398.46,233.24c-7.14,3.11-16.14,4.66-10.24,6.52s-.31,5.9,7.76,1.55,8.69-4.65,8.38-6.83S398.46,233.24,398.46,233.24Z"/>
    <path class="ac" d="M492.5,178.62c-8.69,8.69-10.86,13-11.79,10.55s-.31-.31.62-6.21-1.24-11.79,6.21-8.38S492.5,178.62,492.5,178.62Z"/>
    <path class="ac" d="M437,165.58s.31-7.76-3.73-1.55-3.72,10.86-3.72,15.21,3.1,8.38,6.21,5.58-2.49-30.72-.31-17.69Z"/>
    <path class="ac" d="M385.74,292.21s-11.8,7.76-10.24,12.42,4,8.07,5.89,4.65S385.74,292.21,385.74,292.21Z"/>
    <path class="ac" d="M445,361.42c1.86,0,2.48,2.18,6.51-.62s8.38-2.17,7.45-7.14,4.35-12.72-4-4.34S445,361.42,445,361.42Z"/>
    <path class="ac" d="M470.47,345.28c-2.6-5.18-14,11.8-9.62,11.49S472.64,349.63,470.47,345.28Z"/>
    <path class="ac" d="M484.74,340.94s-14.58,9.62-12.72,11.79S484.74,351.18,484.74,340.94Z"/>
    <path class="ac" d="M418,349s13-.93,13-8.07S420.19,340.32,418,349Z"/>
    <path class="ac" d="M425.77,354s-12.41,2.8-13,8.69S420.5,367,425.77,354Z"/>
    <path class="ac" d="M495.61,334.73s-6.83,2.48-7.14,7.45S494.05,348.7,495.61,334.73Z"/>
    <path class="ac" d="M387,362s1.55-23.58,14.59-33.52-26.7,9-22,40.35S387,362,387,362Z"/>
    <path class="ad" d="M548.68,257.76s-23,5.9-21.11,10.86S548.68,257.76,548.68,257.76Z"/>
    <path class="ad" d="M620.68,224.86s23.28-.93,15.83,5.28S620.68,224.86,620.68,224.86Z"/>
    <path class="ad" d="M588.85,197.74s22.76-3.92,21.81-11.25S588.85,197.74,588.85,197.74Z"/>
    <path class="ad" d="M567.92,168.06s17.69-2.79,17.69,0S574.75,173,567.92,168.06Z"/>
    <path class="ae" d="M509.88,196s-10.55-1.86-11.17,2.17S509.88,196,509.88,196Z"/>
    <path class="ae" d="M480.4,228s-6.52,2.48-4,5S480.4,228,480.4,228Z"/>
    <path class="ad" d="M509.88,196s-13-2.17-11.17,2.17S509.88,196,509.88,196Z"/>
    <path class="ad" d="M500.26,187s6.83-4,9.31-.93S500.26,187,500.26,187Z"/>
    <path class="ae" d="M408.39,168.38s4.35-6.83-2.79-4.66S408.39,168.38,408.39,168.38Z"/>
    <path class="ad" d="M389.77,238.21s8.07-5,10.24-2.8S397.53,240.07,389.77,238.21Z"/>
    <path class="ad" d="M383.88,294.69s-8.07,6.52-5.9,10.25S383.25,302.14,383.88,294.69Z"/>
    <path class="ad" d="M399.08,328.83s-27.31,28.25-17.69,42.52S374.56,349.32,399.08,328.83Z"/>
    <path class="ad" d="M474.5,317.35s-12.41,2.79-13,6.52S474.19,331.63,474.5,317.35Z"/>
    <path class="ad" d="M468.29,347.15s-8.38,2.48-5.58,5.27S468.29,347.15,468.29,347.15Z"/>
    <path class="ad" d="M482.88,343.73s-7.14,2.8-5.9,5S482.88,343.73,482.88,343.73Z"/>
    <path class="ad" d="M494.37,336.28s-7.14,2.8-5,5S493.12,340,494.37,336.28Z"/>
    <path class="ad" d="M414,197.86s-4.65-2.79-.31-3.1S414,197.86,414,197.86Z"/>
    <path class="ad" d="M410,164s-2.49-2.48-5,1.24S403.43,169,410,164Z"/>
    <path class="ad" d="M434.15,166.2s-8.07,13-1.55,15.21S434.15,166.2,434.15,166.2Z"/>
    <path class="ad" d="M707.28,237s-9.94-14.9-13.35-11.18S701.69,230.76,707.28,237Z"/>
    <path class="af" d="M340.73,993.33s-7.86,179.6-10.34,182.91,99.32,31.45,111.32,36.83c0,0,113-28.14,117.94-33.11,0-2.07,5.79-185.39,4.55-192.84S340.73,993.33,340.73,993.33Z"/>
    <path class="ag" d="M329.35,932.91s173.81-23.59,218.5-12.41c0,0,29.8,55.45,24,64.14s-55.45,27.31-65.38,43c0,0-31.86-41-166.36-16.13Z"/>
    <ellipse class="ah" cx="501.92" cy="998.29" rx="10.35" ry="9.52"/>
    <ellipse class="ai" cx="803.48" cy="1105.22" rx="2.79" ry="9.52"/>
    <ellipse class="aj" cx="540.52" cy="795.83" rx="10.35" ry="9.52"/>
    <ellipse class="ak" cx="729.55" cy="808.72" rx="6.46" ry="6.58"/>
    <ellipse class="al" cx="545.92" cy="681.57" rx="8.83" ry="8.12"/>
    <ellipse class="am" cx="659.36" cy="1126.08" rx="9.39" ry="7.52"/>
    <path class="an" d="M722.56,309.3s-9.86-5.19,5.25-4.61,17.49,4.05,15.11,8S737.85,322.91,722.56,309.3Z"/>
    <path class="an" d="M698.1,283.58c-8.52-5.18-38.63-8-51.57-8.9l-1.07-.25c-3-.64-5.47-.7-5.59-.14s2.18,1.55,5.14,2.19a23.5,23.5,0,0,0,2.66.43c25.92,9.49,62,26.55,62.49,21.25C710.73,292.36,709.18,290.31,698.1,283.58Z"/>
    <path class="l" d="M448.12,811.14c0-93.07-50.58-168.53-113-168.53a76.9,76.9,0,0,0-13.85,1.27c-21.87-34.46-48.38-54.65-77-54.65-75,0-135.76,138.83-135.76,310.09s60.78,310.08,135.76,310.08c64.66,0,118.75-103.27,132.42-241.53C418.56,943.15,448.12,882.3,448.12,811.14Z"/>
    <path class="ao" d="M433.43,278.66s-38.49,4.55-18.21-17.8S435.09,257.14,433.43,278.66Z"/>
    <path class="ad" d="M431.83,274.73s-.5-23.93-11.95-13.19S413.37,276.23,431.83,274.73Z"/>
    <path class="ad" d="M510.19,236.14c-.43,0,16.66-5.17,16.87-2.9s-11,7.76-11,7.76S517.23,236.55,510.19,236.14Z"/>
  </g>
</svg>
